<svg id="svg" version="1.1" xmlns="http://www.w3.org/2000/svg" xmlns:xlink="http://www.w3.org/1999/xlink" width="400" height="400" viewBox="0, 0, 400,400"><g id="svgg"><path id="path0" d="M305.913 1.503 C 303.999 3.618,297.283 41.066,298.379 43.513 C 299.639 46.328,302.290 47.446,311.056 48.861 C 321.887 50.609,321.221 49.776,319.480 59.381 C 317.171 72.120,318.065 75.000,324.328 75.000 C 328.725 75.000,330.083 72.808,331.721 63.066 C 332.499 58.435,333.375 54.261,333.667 53.788 C 334.198 52.929,354.368 55.847,355.648 56.968 C 356.092 57.357,343.531 131.710,341.833 138.746 L 341.437 140.382 330.289 138.445 C 324.157 137.380,319.063 136.448,318.968 136.376 C 318.873 136.303,320.427 127.022,322.421 115.752 L 326.047 95.259 324.469 93.137 C 322.088 89.934,315.780 89.760,314.125 92.853 C 313.704 93.638,309.999 113.409,305.890 136.789 C 301.782 160.168,298.257 180.025,298.058 180.914 C 297.702 182.507,297.339 182.468,273.800 178.303 C 242.311 172.730,245.131 171.342,241.059 194.424 C 238.358 209.735,238.149 210.453,235.511 213.535 C 229.842 220.158,226.594 230.217,226.574 241.211 C 226.566 245.438,226.262 247.656,225.688 247.656 C 224.234 247.656,215.715 253.118,210.836 257.178 L 206.250 260.994 206.250 228.211 L 206.250 195.427 210.479 193.491 C 243.097 178.558,244.370 144.954,213.857 104.297 C 200.947 87.095,199.034 87.095,186.154 104.297 C 155.630 145.062,156.894 178.554,189.521 193.491 L 193.750 195.427 193.750 222.414 L 193.750 249.401 190.746 246.686 C 187.385 243.650,179.843 238.408,175.977 236.421 C 173.440 235.117,173.437 235.110,173.438 229.011 C 173.438 192.004,140.011 177.036,89.705 191.518 C 75.159 195.705,74.823 198.085,85.697 219.874 C 106.374 261.304,140.186 273.393,166.450 248.747 L 168.447 246.873 172.963 249.592 C 179.285 253.398,184.736 258.126,189.592 264.013 L 193.750 269.054 193.750 288.291 L 193.750 307.527 189.258 308.916 C 186.787 309.679,183.359 311.110,181.641 312.095 L 178.516 313.886 174.609 310.419 C 153.190 291.409,118.946 298.192,106.584 323.893 L 103.797 329.687 97.959 329.687 C 80.413 329.687,60.065 339.316,50.403 352.190 L 48.072 355.296 42.200 354.905 C 19.512 353.392,-0.000 370.641,0.000 392.208 C 0.000 396.259,0.317 397.701,1.429 398.707 C 3.765 400.821,396.792 400.687,398.707 398.571 C 400.411 396.689,400.436 388.487,398.755 382.759 C 393.609 365.219,376.625 353.661,357.813 354.899 L 351.953 355.284 349.219 351.820 C 345.947 347.674,339.579 342.284,333.881 338.838 C 328.594 335.640,327.361 337.021,345.536 325.781 C 367.756 312.040,375.213 304.616,381.173 290.298 C 383.926 283.685,398.063 206.972,397.179 203.448 C 395.953 198.563,379.490 195.418,375.812 199.366 C 371.826 203.645,375.320 210.156,381.602 210.156 C 384.134 210.156,384.513 206.730,377.716 245.226 C 368.703 296.280,368.545 296.552,336.328 316.504 C 312.541 331.235,315.401 330.092,302.984 329.830 L 296.203 329.688 293.304 323.633 C 288.006 312.565,276.137 303.029,264.665 300.623 C 257.953 299.215,245.766 281.828,244.074 271.245 C 243.457 267.384,243.190 267.461,248.713 269.904 C 274.532 281.323,301.081 263.501,318.276 223.207 C 323.818 210.220,323.298 207.735,314.399 204.665 C 295.406 198.113,271.030 195.907,257.849 199.547 C 255.506 200.194,253.456 200.591,253.294 200.430 C 252.499 199.634,255.076 188.281,256.052 188.281 C 256.634 188.281,278.275 192.006,304.141 196.560 C 357.908 206.024,355.784 205.777,358.303 202.848 C 362.489 197.982,359.531 193.467,351.172 191.963 C 346.012 191.034,345.718 190.869,345.973 189.044 C 346.927 182.214,368.750 59.896,369.072 59.574 C 369.291 59.354,373.688 59.920,378.842 60.831 C 388.434 62.526,390.806 62.372,392.841 59.919 C 393.960 58.572,399.983 25.483,399.993 20.629 C 400.005 15.110,401.059 15.423,355.331 7.364 C 310.506 -0.535,308.024 -0.830,305.913 1.503 M353.028 19.884 C 371.237 23.093,386.259 25.843,386.411 25.995 C 386.734 26.317,382.973 47.756,382.513 48.216 C 382.114 48.615,312.634 36.331,312.064 35.762 C 311.677 35.375,312.720 28.700,314.944 17.335 C 315.715 13.391,315.859 13.207,317.839 13.618 C 318.984 13.855,334.820 16.675,353.028 19.884 M205.569 114.830 C 227.999 146.452,229.110 169.469,208.717 180.015 L 206.250 181.290 206.250 169.109 C 206.250 153.937,204.565 150.834,197.640 153.248 C 194.092 154.485,193.750 155.879,193.750 169.109 L 193.750 181.290 191.553 180.154 C 174.332 171.249,172.170 151.779,185.782 128.204 C 190.005 120.891,199.124 107.813,200.000 107.813 C 200.326 107.813,202.832 110.970,205.569 114.830 M328.318 150.880 C 333.583 151.793,338.195 152.818,338.567 153.158 C 339.139 153.680,333.856 187.209,333.039 188.242 C 331.979 189.582,310.227 184.744,310.561 183.242 C 310.999 181.276,316.406 150.164,316.406 149.614 C 316.406 148.946,318.387 149.157,328.318 150.880 M136.938 199.587 C 150.408 202.441,159.320 212.181,160.726 225.582 L 161.155 229.680 146.562 222.652 C 130.872 215.097,130.721 215.050,127.400 216.768 C 119.366 220.922,123.383 225.934,141.609 234.497 C 157.164 241.805,156.721 241.048,148.047 245.503 C 129.423 255.067,109.479 241.603,94.878 209.608 L 92.311 203.981 96.351 202.836 C 110.898 198.710,126.794 197.438,136.938 199.587 M294.256 212.444 C 298.503 213.309,303.290 214.472,304.894 215.027 L 307.811 216.037 303.302 225.011 C 287.787 255.884,270.190 266.577,250.940 256.831 C 243.814 253.224,243.655 253.430,259.554 245.654 C 274.668 238.261,276.542 236.730,275.510 232.618 C 273.820 225.886,271.031 226.088,254.103 234.167 C 237.434 242.122,237.779 242.156,240.181 232.781 C 245.129 213.466,264.156 206.310,294.256 212.444 M232.824 278.341 C 234.816 284.898,237.836 291.053,241.711 296.454 L 244.491 300.329 239.931 301.980 C 234.111 304.088,229.448 306.833,224.939 310.807 L 221.363 313.958 219.080 312.443 C 217.824 311.610,214.424 310.158,211.523 309.217 L 206.250 307.505 206.250 294.139 L 206.250 280.773 210.411 275.738 C 214.862 270.353,219.277 266.467,225.931 262.079 L 230.078 259.344 230.603 266.048 C 230.891 269.735,231.891 275.267,232.824 278.341 M156.161 314.123 C 161.366 315.927,165.962 319.447,170.683 325.242 C 175.342 330.961,177.922 331.246,183.454 326.650 C 189.775 321.398,191.708 320.703,200.000 320.703 C 208.292 320.703,210.225 321.398,216.546 326.650 C 222.067 331.237,224.660 330.958,229.286 325.280 C 246.833 303.739,277.802 309.900,284.437 336.253 C 285.909 342.096,287.529 342.879,297.141 342.388 C 315.289 341.462,331.776 349.347,342.642 364.150 C 346.364 369.220,348.089 369.867,353.887 368.364 C 367.536 364.828,382.445 372.821,386.300 385.742 L 386.824 387.500 200.000 387.500 L 13.176 387.500 13.700 385.742 C 17.555 372.821,32.464 364.828,46.113 368.364 C 51.897 369.863,53.637 369.218,57.312 364.212 C 68.270 349.285,84.608 341.457,102.859 342.388 C 112.471 342.879,114.091 342.096,115.563 336.253 C 120.203 317.823,138.332 307.942,156.161 314.123 M141.278 334.685 C 131.474 338.187,124.536 352.732,130.043 358.239 C 134.031 362.227,140.059 359.720,140.861 353.738 C 142.206 343.707,154.909 343.643,156.511 353.659 C 157.676 360.949,166.195 362.580,168.699 355.993 C 173.426 343.560,155.478 329.613,141.278 334.685 M234.370 349.121 C 220.336 353.725,213.618 375.000,226.198 375.000 C 229.444 375.000,231.698 372.709,232.328 368.770 C 234.043 358.047,248.438 359.375,248.438 370.257 C 248.438 376.612,259.393 376.349,260.590 369.965 C 262.896 357.674,246.947 344.994,234.370 349.121 M90.625 356.081 C 83.537 358.337,86.721 367.290,93.933 365.384 C 97.857 364.348,97.869 357.794,93.950 356.448 C 92.766 356.041,91.270 355.876,90.625 356.081 M318.480 370.179 C 315.422 373.558,317.659 378.438,322.266 378.438 C 325.587 378.438,327.344 376.698,327.344 373.409 C 327.344 369.252,321.309 367.053,318.480 370.179 " stroke="none" fill="#000000" fill-rule="evenodd"></path></g></svg>