<svg id="svg" version="1.1" xmlns="http://www.w3.org/2000/svg" xmlns:xlink="http://www.w3.org/1999/xlink" width="400" height="400" viewBox="0, 0, 400,400"><g id="svgg"><path id="path0" d="M316.020 151.300 C 315.201 155.482,314.845 157.473,313.395 166.000 C 312.628 170.510,311.829 175.100,311.619 176.200 C 310.742 180.797,310.263 184.397,310.499 184.632 C 310.637 184.770,314.766 185.587,319.675 186.448 C 324.584 187.309,329.546 188.219,330.702 188.471 C 333.473 189.074,332.822 191.253,336.818 168.000 C 338.276 159.510,338.713 157.130,339.229 154.846 C 339.704 152.746,339.692 152.732,337.294 152.368 C 336.252 152.210,334.365 151.882,333.100 151.640 C 328.163 150.695,317.271 148.804,316.755 148.801 C 316.620 148.801,316.289 149.925,316.020 151.300 M254.800 188.607 C 254.800 189.212,254.632 190.358,254.426 191.154 C 254.221 191.949,253.840 193.950,253.580 195.600 C 253.320 197.250,252.962 199.185,252.786 199.900 C 252.408 201.429,252.210 201.401,256.000 200.347 C 265.271 197.769,278.128 197.160,288.400 198.812 C 296.927 200.183,298.833 200.566,305.400 202.229 C 320.572 206.069,323.962 208.682,321.550 214.681 C 321.096 215.811,320.687 216.854,320.054 218.500 C 319.863 218.995,319.524 219.850,319.300 220.400 C 319.076 220.950,318.388 222.660,317.769 224.200 C 316.474 227.428,312.954 234.478,311.179 237.400 C 310.511 238.500,309.862 239.715,309.736 240.100 C 309.610 240.485,309.348 240.800,309.153 240.800 C 308.959 240.800,308.800 240.988,308.800 241.218 C 308.800 241.448,307.873 243.023,306.740 244.718 C 297.807 258.078,286.774 267.891,277.400 270.812 C 276.520 271.086,275.440 271.446,275.000 271.611 C 272.352 272.606,270.044 272.884,264.380 272.891 C 260.943 272.896,257.517 272.707,256.766 272.472 C 256.015 272.237,254.050 271.652,252.400 271.172 C 250.750 270.692,248.005 269.608,246.300 268.763 C 244.595 267.918,243.200 267.398,243.200 267.608 C 243.200 268.412,244.738 274.634,245.225 275.800 C 245.409 276.240,245.851 277.496,246.206 278.592 C 247.486 282.535,251.407 288.875,256.135 294.648 C 256.474 295.062,257.555 296.402,258.538 297.627 C 260.150 299.636,260.554 299.906,262.663 300.385 C 273.787 302.912,285.046 310.122,289.413 317.515 C 289.831 318.222,290.314 318.800,290.486 318.800 C 290.659 318.800,290.800 318.993,290.800 319.228 C 290.800 319.463,291.307 320.408,291.928 321.328 C 293.113 323.086,294.331 325.586,295.227 328.100 L 295.761 329.600 301.050 329.600 C 303.959 329.600,307.259 329.812,308.384 330.072 C 310.399 330.537,313.018 330.214,315.400 329.206 C 315.840 329.019,316.785 328.628,317.500 328.336 C 318.215 328.044,318.800 327.669,318.800 327.502 C 318.800 327.336,318.993 327.200,319.228 327.200 C 319.463 327.200,320.441 326.660,321.400 326.000 C 322.359 325.340,323.254 324.800,323.389 324.800 C 323.524 324.800,323.851 324.611,324.117 324.380 C 324.688 323.884,340.463 314.030,343.980 311.973 C 344.518 311.658,345.148 311.266,345.380 311.102 C 345.611 310.939,348.050 309.337,350.800 307.543 C 355.294 304.611,360.819 299.739,363.219 296.591 C 368.198 290.064,371.213 282.821,372.792 273.600 C 373.243 270.963,373.686 268.496,374.389 264.700 C 374.603 263.545,374.881 261.970,375.007 261.200 C 375.133 260.430,375.408 258.855,375.618 257.700 C 376.395 253.426,376.837 250.944,377.200 248.800 C 377.405 247.590,377.759 245.565,377.986 244.300 C 378.214 243.035,378.563 241.055,378.763 239.900 C 378.963 238.745,379.338 236.630,379.597 235.200 C 379.856 233.770,380.231 231.700,380.430 230.600 C 380.629 229.500,380.976 227.520,381.200 226.200 C 381.424 224.880,381.770 222.900,381.969 221.800 C 382.307 219.933,382.709 217.546,383.531 212.536 L 383.869 210.472 382.435 210.258 C 378.389 209.657,376.407 208.800,375.408 207.220 C 374.685 206.076,374.012 203.812,374.006 202.500 C 374.000 201.210,373.985 201.200,372.024 201.200 C 370.937 201.200,369.936 201.020,369.800 200.800 C 369.664 200.580,368.588 200.400,367.410 200.400 C 366.231 200.400,365.207 200.234,365.133 200.031 C 364.696 198.819,360.243 199.446,359.504 200.823 C 357.568 204.432,354.318 205.622,349.646 204.431 C 348.851 204.229,346.940 203.856,345.400 203.603 C 343.860 203.350,341.700 202.983,340.600 202.789 C 339.500 202.594,337.430 202.233,336.000 201.987 C 334.570 201.741,332.590 201.387,331.600 201.200 C 330.610 201.013,328.675 200.667,327.300 200.430 C 322.539 199.611,319.791 199.129,317.800 198.763 C 313.054 197.891,301.619 195.891,299.600 195.580 C 298.390 195.393,296.365 195.051,295.100 194.820 C 293.835 194.589,291.765 194.211,290.500 193.980 C 289.235 193.749,287.120 193.374,285.800 193.146 C 284.480 192.918,282.500 192.569,281.400 192.370 C 280.300 192.171,278.320 191.825,277.000 191.603 C 274.472 191.176,271.008 190.560,268.000 190.002 C 267.010 189.819,265.120 189.482,263.800 189.254 C 260.846 188.744,257.365 188.083,255.900 187.754 C 254.907 187.531,254.800 187.613,254.800 188.607 " stroke="none" fill="#d7e2e2" fill-rule="evenodd"></path><path id="path1" d="M333.037 52.849 C 332.939 53.152,332.749 54.030,332.615 54.800 C 332.480 55.570,332.198 57.100,331.989 58.200 C 331.589 60.296,330.949 64.023,330.579 66.400 C 329.654 72.352,328.240 74.209,324.200 74.776 C 322.685 74.988,322.593 75.080,322.475 76.508 C 322.407 77.338,322.182 77.912,321.975 77.785 C 321.759 77.651,321.600 78.493,321.600 79.776 C 321.600 80.999,321.420 82.000,321.200 82.000 C 320.980 82.000,320.800 82.979,320.800 84.176 C 320.800 85.373,320.620 86.464,320.400 86.600 C 319.274 87.296,319.964 90.692,321.367 91.358 C 324.578 92.881,325.579 96.141,324.427 101.323 C 323.742 104.404,319.048 131.284,318.608 134.646 C 318.297 137.020,318.266 136.996,322.358 137.626 C 323.811 137.850,325.900 138.204,327.000 138.414 C 328.100 138.625,329.990 138.969,331.200 139.179 C 332.410 139.389,334.570 139.784,336.000 140.055 C 337.430 140.327,339.394 140.560,340.364 140.574 L 342.127 140.600 342.629 138.000 C 343.159 135.255,343.504 133.298,346.999 113.200 C 349.760 97.321,350.317 94.161,351.158 89.600 C 351.381 88.390,351.760 86.230,352.000 84.800 C 352.240 83.370,352.608 81.255,352.818 80.100 C 353.028 78.945,353.370 77.055,353.577 75.900 C 353.784 74.745,354.131 72.810,354.348 71.600 C 354.565 70.390,354.952 68.140,355.207 66.600 C 355.462 65.060,355.829 63.080,356.021 62.200 C 356.213 61.320,356.482 59.671,356.618 58.536 L 356.865 56.472 354.533 56.001 C 353.250 55.742,351.390 55.366,350.400 55.166 C 349.410 54.966,346.980 54.539,345.000 54.217 C 343.020 53.895,340.320 53.431,339.000 53.187 C 334.325 52.323,333.226 52.261,333.037 52.849 M315.843 149.033 C 315.709 149.381,315.622 150.236,315.648 150.933 C 315.693 152.119,315.722 152.090,316.106 150.494 L 316.516 148.788 318.558 149.000 C 320.006 149.150,320.367 149.101,319.800 148.834 C 318.463 148.203,316.116 148.321,315.843 149.033 M321.800 149.600 C 323.597 150.057,325.264 150.057,324.200 149.600 C 323.760 149.411,322.770 149.265,322.000 149.275 L 320.600 149.295 321.800 149.600 M326.600 150.387 C 328.851 150.977,333.604 151.730,333.806 151.528 C 334.057 151.276,327.593 149.987,326.328 150.036 C 325.550 150.066,325.594 150.123,326.600 150.387 M336.000 152.078 C 336.990 152.289,338.223 152.545,338.739 152.648 C 339.537 152.807,339.637 152.997,339.404 153.917 C 339.253 154.513,338.976 155.900,338.789 157.000 C 338.601 158.100,338.066 161.160,337.600 163.800 C 337.134 166.440,336.305 171.210,335.756 174.400 C 335.208 177.590,334.580 181.190,334.362 182.400 C 334.144 183.610,333.819 185.459,333.641 186.508 C 333.220 188.987,333.214 188.991,330.510 188.460 C 325.034 187.386,312.074 185.203,311.370 185.236 C 310.371 185.283,312.205 185.754,315.800 186.374 C 317.340 186.640,319.590 187.035,320.800 187.252 C 322.010 187.469,323.990 187.823,325.200 188.040 C 326.410 188.256,328.168 188.605,329.106 188.816 C 333.407 189.784,333.612 189.636,334.418 185.000 C 336.009 175.842,336.488 173.112,336.839 171.200 C 337.234 169.052,337.507 167.495,338.348 162.600 C 338.575 161.280,338.960 159.120,339.204 157.800 C 339.447 156.480,339.748 154.744,339.870 153.943 L 340.094 152.486 338.027 152.043 C 336.891 151.799,335.564 151.622,335.080 151.648 C 334.596 151.674,335.010 151.868,336.000 152.078 M314.982 154.182 C 314.829 155.202,314.802 156.135,314.922 156.255 C 315.042 156.375,315.265 155.639,315.418 154.618 C 315.571 153.598,315.598 152.665,315.478 152.545 C 315.358 152.425,315.135 153.161,314.982 154.182 M314.250 158.600 C 313.934 160.700,313.410 163.445,312.777 166.306 C 312.570 167.244,312.417 168.594,312.438 169.306 C 312.459 170.018,313.002 167.810,313.645 164.400 C 314.288 160.990,314.754 157.840,314.682 157.400 C 314.609 156.960,314.415 157.500,314.250 158.600 M311.814 172.259 C 311.683 173.107,311.409 174.700,311.206 175.800 C 310.782 178.095,310.109 182.083,309.870 183.710 C 309.781 184.320,309.863 184.915,310.054 185.033 C 310.244 185.151,310.404 184.742,310.408 184.124 C 310.412 183.506,310.679 181.560,311.000 179.800 C 312.089 173.832,312.472 171.139,312.261 170.928 C 312.146 170.813,311.944 171.412,311.814 172.259 M254.247 189.337 C 254.078 190.402,254.032 191.365,254.144 191.478 C 254.436 191.769,254.905 189.024,254.714 188.140 C 254.627 187.733,254.416 188.271,254.247 189.337 M256.479 187.812 C 256.595 187.929,257.750 188.208,259.045 188.432 C 260.340 188.656,262.480 189.026,263.800 189.254 C 265.120 189.482,267.010 189.819,268.000 190.002 C 271.008 190.560,274.472 191.176,277.000 191.603 C 278.320 191.825,280.300 192.171,281.400 192.370 C 282.500 192.569,284.480 192.918,285.800 193.146 C 287.120 193.374,289.235 193.749,290.500 193.980 C 291.765 194.211,293.835 194.589,295.100 194.820 C 299.309 195.588,302.518 196.016,302.701 195.833 C 302.800 195.733,302.188 195.544,301.341 195.414 C 299.852 195.184,298.255 194.901,293.600 194.042 C 292.390 193.819,290.230 193.435,288.800 193.188 C 287.370 192.941,285.390 192.587,284.400 192.400 C 283.410 192.213,281.475 191.867,280.100 191.630 C 275.106 190.771,272.561 190.323,270.600 189.959 C 259.378 187.874,256.032 187.366,256.479 187.812 M253.614 192.600 C 253.587 193.040,253.234 195.169,252.831 197.331 C 251.963 201.980,252.011 202.042,255.639 200.956 C 256.980 200.554,257.892 200.164,257.667 200.089 C 257.441 200.014,256.311 200.233,255.156 200.576 C 252.392 201.397,252.414 201.403,252.786 199.900 C 253.485 197.069,254.094 192.888,253.885 192.359 C 253.737 191.986,253.647 192.067,253.614 192.600 M309.000 197.219 C 312.300 197.847,315.450 198.348,316.000 198.333 C 316.998 198.304,315.513 197.942,311.200 197.164 C 309.990 196.946,308.232 196.595,307.294 196.384 C 306.356 196.173,305.006 196.017,304.294 196.039 C 303.582 196.060,305.700 196.591,309.000 197.219 M270.600 198.005 C 268.604 198.186,269.859 198.279,274.967 198.329 C 278.908 198.368,282.058 198.335,281.967 198.256 C 281.612 197.948,273.258 197.764,270.600 198.005 M262.600 198.822 C 262.079 199.061,262.776 199.103,264.600 198.945 C 266.140 198.811,267.475 198.634,267.567 198.551 C 267.924 198.228,263.354 198.477,262.600 198.822 M284.600 198.818 C 287.406 199.255,289.786 199.244,288.400 198.800 C 287.850 198.624,286.320 198.486,285.000 198.493 L 282.600 198.507 284.600 198.818 M318.000 198.800 C 319.452 199.265,321.682 199.265,320.600 198.800 C 320.160 198.611,319.170 198.462,318.400 198.468 C 317.127 198.479,317.091 198.509,318.000 198.800 M258.800 199.600 C 258.042 200.090,259.270 200.090,260.800 199.600 C 261.780 199.286,261.776 199.279,260.600 199.246 C 259.940 199.227,259.130 199.387,258.800 199.600 M290.600 199.600 C 292.361 200.048,294.599 200.048,293.200 199.600 C 292.650 199.424,291.570 199.283,290.800 199.287 L 289.400 199.295 290.600 199.600 M322.400 199.600 C 323.852 200.065,326.082 200.065,325.000 199.600 C 324.560 199.411,323.570 199.262,322.800 199.268 C 321.527 199.279,321.491 199.309,322.400 199.600 M358.879 201.013 C 357.526 203.796,356.082 204.499,352.200 204.259 C 350.258 204.139,349.315 204.196,349.800 204.403 C 351.835 205.270,355.749 204.856,357.257 203.614 C 358.563 202.537,360.298 199.765,359.910 199.376 C 359.822 199.289,359.358 200.025,358.879 201.013 M295.200 200.400 C 296.652 200.865,298.882 200.865,297.800 200.400 C 297.360 200.211,296.370 200.062,295.600 200.068 C 294.327 200.079,294.291 200.109,295.200 200.400 M327.200 200.400 C 327.750 200.576,328.740 200.720,329.400 200.720 C 330.567 200.720,330.572 200.711,329.600 200.400 C 329.050 200.224,328.060 200.080,327.400 200.080 C 326.233 200.080,326.228 200.089,327.200 200.400 M298.800 200.960 C 298.800 201.048,300.195 201.418,301.900 201.783 C 303.605 202.147,305.450 202.594,306.000 202.776 C 306.550 202.958,307.810 203.332,308.800 203.608 C 312.278 204.575,313.407 204.914,314.200 205.229 C 314.640 205.404,315.720 205.777,316.600 206.059 C 322.249 207.866,322.751 210.402,319.232 219.355 C 318.982 219.991,318.868 220.602,318.979 220.713 C 319.090 220.824,319.292 220.574,319.427 220.157 C 319.562 219.741,319.836 218.995,320.036 218.500 C 320.236 218.005,320.558 217.195,320.750 216.700 C 320.943 216.205,321.303 215.297,321.550 214.681 C 322.661 211.919,321.652 208.174,319.422 206.782 C 316.876 205.192,298.800 200.089,298.800 200.960 M331.600 201.200 C 332.150 201.376,333.140 201.520,333.800 201.520 C 334.967 201.520,334.972 201.511,334.000 201.200 C 333.450 201.024,332.460 200.880,331.800 200.880 C 330.633 200.880,330.628 200.889,331.600 201.200 M336.400 202.002 C 337.170 202.178,339.060 202.532,340.600 202.790 C 342.140 203.047,344.308 203.445,345.418 203.674 C 346.527 203.903,347.787 204.021,348.218 203.936 C 349.042 203.773,337.091 201.570,335.769 201.641 C 335.346 201.664,335.630 201.827,336.400 202.002 M374.170 203.100 C 374.730 207.074,376.531 209.246,379.712 209.783 C 380.641 209.939,381.984 210.162,382.697 210.277 C 383.763 210.450,383.964 210.639,383.826 211.343 C 383.734 211.815,383.457 213.370,383.212 214.800 C 382.294 220.140,382.058 221.460,381.594 223.837 C 381.332 225.178,381.183 226.617,381.264 227.036 C 381.344 227.455,381.913 224.918,382.528 221.399 C 383.142 217.879,383.845 214.049,384.089 212.887 C 384.628 210.321,384.529 210.206,381.200 209.546 C 376.832 208.681,375.321 207.339,374.922 203.969 C 374.794 202.886,374.537 202.000,374.352 202.000 C 374.167 202.000,374.085 202.495,374.170 203.100 M317.570 223.499 C 305.433 252.547,286.945 270.544,267.200 272.531 C 266.406 272.611,266.856 272.700,268.240 272.736 C 269.582 272.771,271.202 272.641,271.840 272.447 C 272.478 272.252,273.810 271.872,274.800 271.601 C 283.916 269.108,292.429 262.972,300.576 253.022 C 303.980 248.865,308.800 241.946,308.800 241.215 C 308.800 240.987,308.959 240.800,309.153 240.800 C 309.348 240.800,309.610 240.485,309.736 240.100 C 309.862 239.715,310.451 238.590,311.046 237.600 C 313.552 233.427,319.080 221.747,318.719 221.386 C 318.616 221.282,318.098 222.233,317.570 223.499 M380.653 229.400 C 380.501 230.280,380.209 231.900,380.006 233.000 C 379.803 234.100,379.440 236.170,379.200 237.600 C 378.710 240.519,378.243 243.153,377.639 246.400 C 377.414 247.610,377.116 249.320,376.977 250.200 C 376.838 251.080,376.576 252.610,376.396 253.600 C 376.216 254.590,375.858 256.570,375.600 258.000 C 375.342 259.430,374.982 261.410,374.800 262.400 C 374.618 263.390,374.285 265.280,374.061 266.600 C 372.126 277.986,371.236 281.684,369.378 286.040 C 365.580 294.946,359.694 301.770,350.696 307.700 C 348.109 309.405,345.814 310.800,345.596 310.800 C 345.378 310.800,345.200 310.980,345.200 311.200 C 345.200 311.420,345.042 311.600,344.849 311.600 C 344.657 311.600,341.372 313.583,337.549 316.006 C 333.727 318.430,330.330 320.531,330.000 320.676 C 329.670 320.821,328.103 321.808,326.518 322.870 C 324.933 323.931,323.448 324.800,323.218 324.800 C 322.988 324.800,322.800 324.980,322.800 325.200 C 322.800 325.420,322.607 325.600,322.372 325.600 C 322.137 325.600,321.192 326.107,320.272 326.727 C 318.315 328.046,315.981 329.164,314.006 329.729 C 312.498 330.160,311.551 330.165,301.982 329.781 L 295.765 329.531 295.242 328.266 C 294.954 327.570,294.377 326.237,293.959 325.304 C 293.542 324.372,293.200 323.504,293.200 323.376 C 293.200 323.249,292.660 322.359,292.000 321.400 C 291.340 320.441,290.800 319.463,290.800 319.228 C 290.800 318.993,290.662 318.800,290.494 318.800 C 290.326 318.800,289.741 318.073,289.194 317.183 C 286.764 313.233,274.392 303.075,273.318 304.149 C 273.190 304.277,273.426 304.507,273.843 304.661 C 280.685 307.190,290.649 318.025,294.019 326.600 C 294.191 327.040,294.572 327.985,294.864 328.700 L 295.395 330.000 299.198 329.999 C 301.289 329.999,304.906 330.205,307.236 330.458 C 313.829 331.172,315.043 330.696,328.800 322.002 C 338.302 315.997,347.301 310.400,347.452 310.400 C 348.344 310.400,356.914 303.943,359.624 301.229 C 364.812 296.034,371.200 285.658,371.200 282.428 C 371.200 281.999,371.359 281.549,371.554 281.429 C 371.749 281.308,372.001 280.713,372.114 280.105 C 372.228 279.497,372.518 277.965,372.760 276.700 C 373.448 273.100,374.008 269.993,374.400 267.600 C 374.598 266.390,374.949 264.365,375.180 263.100 C 375.411 261.835,375.772 259.855,375.983 258.700 C 376.193 257.545,376.741 254.440,377.200 251.800 C 377.659 249.160,378.197 246.100,378.395 245.000 C 378.593 243.900,379.040 241.380,379.390 239.400 C 379.739 237.420,380.302 234.309,380.639 232.487 C 380.977 230.664,381.181 228.864,381.092 228.487 C 381.004 228.109,380.806 228.520,380.653 229.400 M242.932 267.434 C 242.571 268.374,244.208 275.299,245.572 278.600 C 247.810 284.018,249.409 286.605,254.964 293.800 C 260.139 300.502,260.456 300.812,262.082 300.749 L 263.400 300.699 261.856 300.268 C 260.722 299.952,259.838 299.248,258.531 297.619 C 257.552 296.398,256.474 295.062,256.135 294.648 C 249.877 287.007,246.448 280.757,244.479 273.400 C 242.712 266.802,242.656 266.938,246.400 268.759 C 249.173 270.108,252.566 271.304,256.646 272.370 C 257.552 272.606,259.262 272.776,260.446 272.747 L 262.600 272.695 259.966 272.387 C 255.454 271.859,249.286 269.893,245.323 267.720 C 243.331 266.627,243.245 266.617,242.932 267.434 M263.700 273.076 C 264.085 273.176,264.715 273.176,265.100 273.076 C 265.485 272.975,265.170 272.893,264.400 272.893 C 263.630 272.893,263.315 272.975,263.700 273.076 M264.200 301.200 C 265.384 301.709,266.787 301.709,266.000 301.200 C 265.670 300.987,264.950 300.822,264.400 300.834 C 263.484 300.854,263.467 300.885,264.200 301.200 M267.200 301.962 C 267.530 302.196,268.027 302.391,268.304 302.394 C 268.582 302.397,269.624 302.783,270.620 303.251 C 271.616 303.719,272.519 304.014,272.628 303.906 C 272.872 303.662,269.427 302.159,267.800 301.800 C 266.891 301.599,266.746 301.639,267.200 301.962 M140.000 312.202 C 126.805 314.802,117.632 324.155,114.631 338.069 C 113.905 341.434,111.065 342.647,105.519 341.962 C 97.290 340.945,86.579 342.530,79.288 345.841 C 78.127 346.368,77.106 346.800,77.020 346.800 C 74.002 346.800,61.778 357.172,57.374 363.471 C 53.428 369.112,51.964 369.711,46.484 367.925 C 33.119 363.570,15.874 373.243,13.013 386.700 L 12.736 388.000 200.000 388.000 L 387.264 388.000 386.996 386.700 C 384.348 373.822,367.603 364.111,354.520 367.866 C 348.085 369.713,346.500 369.104,342.400 363.214 C 332.395 348.840,313.331 340.192,295.630 341.997 C 287.957 342.779,286.174 341.855,284.834 336.400 C 278.520 310.713,246.818 303.077,230.408 323.290 C 229.288 324.670,227.864 326.430,227.245 327.200 C 224.586 330.509,221.721 330.281,217.094 326.393 C 206.248 317.278,193.421 317.233,183.148 326.273 C 177.788 330.989,175.458 330.737,171.104 324.970 C 163.289 314.618,151.758 309.885,140.000 312.202 M152.400 334.171 C 162.074 336.556,168.805 344.386,168.799 353.246 C 168.792 362.172,158.457 361.786,156.820 352.800 C 154.995 342.776,140.427 343.764,140.402 353.913 C 140.392 358.072,135.742 360.844,131.863 359.003 C 129.665 357.960,128.798 356.244,128.808 352.953 C 128.844 341.288,141.240 331.419,152.400 334.171 M246.251 349.635 C 255.573 353.394,262.174 363.300,260.060 370.359 C 258.025 377.150,248.400 375.368,248.400 368.200 C 248.400 362.740,241.594 358.950,236.478 361.560 C 233.871 362.890,232.000 365.871,232.000 368.694 C 232.000 372.801,227.581 375.806,223.840 374.242 C 217.151 371.448,220.377 358.189,229.221 352.128 C 233.563 349.152,241.991 347.918,246.251 349.635 M94.175 356.862 C 95.788 357.596,96.978 360.450,96.400 362.199 C 95.456 365.061,91.882 366.491,89.589 364.924 C 84.672 361.564,88.752 354.391,94.175 356.862 M325.403 370.128 C 328.532 372.833,327.033 377.723,322.904 378.277 C 318.959 378.806,316.182 374.358,318.379 371.027 C 320.098 368.419,322.997 368.048,325.403 370.128 " stroke="none" fill="#9d6848" fill-rule="evenodd"></path><path id="path2" d="M198.570 108.322 C 198.113 108.915,196.835 110.575,195.729 112.012 C 177.687 135.452,171.561 157.512,179.759 169.516 C 182.451 173.457,188.291 179.200,189.608 179.200 C 189.792 179.200,190.188 179.425,190.487 179.700 C 191.233 180.386,192.703 181.200,193.195 181.200 C 193.449 181.200,193.611 179.000,193.630 175.300 C 193.713 158.645,194.279 155.317,197.282 153.819 C 200.591 152.168,205.600 154.408,205.600 157.538 C 205.600 157.986,205.780 158.464,206.000 158.600 C 206.251 158.755,206.400 163.004,206.400 170.024 C 206.400 176.974,206.547 181.200,206.788 181.200 C 207.782 181.200,211.863 178.526,214.998 175.820 C 229.478 163.319,225.536 140.507,203.885 111.500 C 200.478 106.936,199.902 106.592,198.570 108.322 M117.400 198.403 C 114.050 198.720,112.748 198.909,106.726 199.955 C 102.992 200.603,96.671 202.144,94.881 202.842 C 94.376 203.039,93.621 203.200,93.205 203.200 C 92.105 203.200,91.855 203.874,92.417 205.324 C 93.419 207.914,98.517 218.207,100.034 220.704 C 100.895 222.122,101.600 223.363,101.600 223.463 C 101.600 223.775,104.841 228.467,107.308 231.725 C 121.274 250.171,137.573 253.839,154.332 242.309 L 156.085 241.103 154.742 240.476 C 154.004 240.131,151.330 238.827,148.800 237.579 C 146.270 236.330,141.950 234.200,139.200 232.846 C 126.915 226.796,126.620 226.630,125.700 225.241 C 123.205 221.474,125.960 216.400,130.501 216.400 C 132.116 216.400,143.058 221.128,148.095 224.004 C 148.477 224.222,148.996 224.400,149.250 224.400 C 149.642 224.400,157.597 228.071,159.695 229.220 C 161.158 230.021,161.305 229.720,161.018 226.500 C 160.580 221.588,159.612 218.152,157.448 213.828 C 152.401 203.743,142.532 198.620,127.400 198.228 C 123.880 198.136,119.380 198.215,117.400 198.403 M265.800 210.436 C 249.296 212.765,238.419 224.869,238.401 240.927 C 238.399 242.495,236.211 243.409,259.945 231.937 C 268.425 227.837,269.429 227.563,271.777 228.704 C 274.177 229.870,275.000 231.218,275.000 233.982 C 275.000 237.988,275.831 237.430,255.200 247.268 C 241.982 253.571,243.203 252.612,245.900 254.575 C 252.300 259.233,263.015 261.925,268.954 260.368 C 272.808 259.358,273.926 258.963,276.200 257.811 C 281.477 255.138,287.535 250.049,291.047 245.339 C 291.679 244.493,292.295 243.710,292.417 243.600 C 292.539 243.490,293.075 242.770,293.608 242.000 C 294.142 241.230,294.869 240.282,295.225 239.893 C 295.581 239.505,296.121 238.695,296.425 238.093 C 296.730 237.492,297.632 236.010,298.430 234.800 C 300.620 231.483,307.600 217.245,307.600 216.097 C 307.600 215.522,306.308 215.112,295.800 212.355 C 288.276 210.381,273.079 209.409,265.800 210.436 " stroke="none" fill="#5cb327" fill-rule="evenodd"></path><path id="path3" d="M315.434 13.285 C 315.075 13.486,314.800 14.161,314.800 14.843 C 314.800 15.504,314.634 16.800,314.432 17.723 C 313.974 19.813,313.385 23.014,312.836 26.400 C 312.604 27.830,312.159 30.530,311.847 32.400 C 311.202 36.273,311.258 36.395,313.876 36.837 C 319.394 37.770,341.286 41.606,345.800 42.431 C 348.216 42.873,350.016 43.189,354.800 44.013 C 356.230 44.259,358.210 44.613,359.200 44.800 C 360.190 44.987,362.170 45.341,363.600 45.588 C 365.030 45.835,367.100 46.200,368.200 46.400 C 369.300 46.600,371.370 46.965,372.800 47.212 C 374.230 47.459,376.210 47.817,377.200 48.007 C 383.153 49.154,383.069 49.187,383.665 45.486 C 384.349 41.229,385.137 36.789,386.094 31.800 C 386.347 30.480,386.564 28.509,386.577 27.420 L 386.600 25.441 382.800 24.737 C 377.251 23.710,375.135 23.329,369.900 22.418 C 365.769 21.699,358.543 20.421,355.000 19.783 C 354.340 19.665,352.765 19.395,351.500 19.184 C 347.126 18.454,344.587 18.001,341.529 17.404 C 339.839 17.075,337.229 16.608,335.729 16.368 C 334.228 16.128,332.190 15.785,331.200 15.607 C 324.972 14.485,319.546 13.519,317.934 13.246 C 316.908 13.072,315.783 13.090,315.434 13.285 " stroke="none" fill="#499ce7" fill-rule="evenodd"></path><path id="path4" d="M305.700 1.104 C 304.879 1.872,304.400 2.704,304.400 3.360 C 304.400 3.932,304.220 4.400,304.000 4.400 C 303.780 4.400,303.600 5.300,303.600 6.400 C 303.600 7.500,303.420 8.400,303.200 8.400 C 302.980 8.400,302.800 9.390,302.800 10.600 C 302.800 11.810,302.620 12.800,302.400 12.800 C 302.180 12.800,302.000 13.779,302.000 14.976 C 302.000 16.173,301.820 17.264,301.600 17.400 C 301.380 17.536,301.200 18.537,301.200 19.624 C 301.200 20.711,301.020 21.600,300.800 21.600 C 300.580 21.600,300.400 22.579,300.400 23.776 C 300.400 24.973,300.220 26.064,300.000 26.200 C 299.780 26.336,299.600 27.326,299.600 28.400 C 299.600 29.474,299.420 30.464,299.200 30.600 C 298.980 30.736,298.800 31.726,298.800 32.800 C 298.800 33.874,298.620 34.864,298.400 35.000 C 298.180 35.136,298.000 36.227,298.000 37.424 C 298.000 38.621,297.820 39.600,297.600 39.600 C 297.047 39.600,297.099 41.455,297.700 43.172 C 298.269 44.796,300.468 47.200,301.387 47.200 C 301.724 47.200,302.000 47.380,302.000 47.600 C 302.000 47.820,302.889 48.000,303.976 48.000 C 305.063 48.000,306.064 48.180,306.200 48.400 C 306.336 48.620,307.326 48.800,308.400 48.800 C 309.474 48.800,310.464 48.980,310.600 49.200 C 310.736 49.420,311.827 49.600,313.024 49.600 C 314.221 49.600,315.200 49.780,315.200 50.000 C 315.200 50.220,315.974 50.400,316.920 50.400 C 319.430 50.400,321.544 51.493,320.400 52.200 C 320.180 52.336,320.000 53.427,320.000 54.624 C 320.000 55.821,319.820 56.800,319.600 56.800 C 319.380 56.800,319.200 57.790,319.200 59.000 C 319.200 60.210,319.020 61.200,318.800 61.200 C 318.580 61.200,318.400 62.089,318.400 63.176 C 318.400 64.263,318.220 65.264,318.000 65.400 C 317.780 65.536,317.600 66.987,317.600 68.624 C 317.600 70.341,317.769 71.600,318.000 71.600 C 318.220 71.600,318.400 71.888,318.400 72.240 C 318.400 73.890,320.789 75.258,323.164 74.969 C 328.129 74.364,329.607 72.657,330.579 66.400 C 330.957 63.968,331.594 60.272,331.991 58.200 C 332.202 57.100,332.517 55.390,332.690 54.400 C 333.051 52.336,333.725 52.189,338.600 53.111 C 339.920 53.361,342.710 53.845,344.800 54.188 C 348.704 54.829,351.549 55.361,354.931 56.083 L 356.862 56.495 356.616 58.547 C 356.481 59.676,356.213 61.320,356.021 62.200 C 355.829 63.080,355.462 65.060,355.207 66.600 C 354.952 68.140,354.565 70.390,354.348 71.600 C 354.131 72.810,353.784 74.745,353.577 75.900 C 353.370 77.055,353.028 78.945,352.818 80.100 C 352.608 81.255,352.240 83.370,352.000 84.800 C 351.528 87.613,351.079 90.147,350.442 93.600 C 349.886 96.619,349.517 98.717,346.999 113.200 C 343.504 133.298,343.159 135.255,342.629 138.000 L 342.127 140.600 340.364 140.574 C 339.394 140.560,337.430 140.327,336.000 140.055 C 334.570 139.784,332.410 139.389,331.200 139.179 C 329.990 138.969,328.100 138.625,327.000 138.414 C 325.900 138.204,323.811 137.850,322.358 137.626 C 318.266 136.996,318.297 137.020,318.608 134.646 C 319.048 131.284,323.742 104.404,324.427 101.323 C 325.603 96.034,324.640 93.040,321.185 91.239 C 319.520 90.371,316.000 90.073,316.000 90.800 C 316.000 91.020,315.739 91.200,315.420 91.200 C 314.500 91.200,312.800 93.739,312.800 95.114 C 312.800 95.795,312.620 96.464,312.400 96.600 C 312.180 96.736,312.000 97.827,312.000 99.024 C 312.000 100.221,311.837 101.200,311.637 101.200 C 311.437 101.200,311.173 102.145,311.050 103.300 C 310.528 108.204,310.339 109.443,310.000 110.200 C 309.627 111.033,309.517 111.788,308.730 118.900 C 308.468 121.265,308.107 123.200,307.927 123.200 C 307.747 123.200,307.600 124.190,307.600 125.400 C 307.600 126.610,307.420 127.600,307.200 127.600 C 306.980 127.600,306.800 128.489,306.800 129.576 C 306.800 130.663,306.620 131.664,306.400 131.800 C 306.180 131.936,306.000 133.027,306.000 134.224 C 306.000 135.421,305.820 136.400,305.600 136.400 C 305.378 136.400,305.200 137.467,305.200 138.800 C 305.200 140.133,305.022 141.200,304.800 141.200 C 304.580 141.200,304.400 142.089,304.400 143.176 C 304.400 144.263,304.220 145.264,304.000 145.400 C 303.780 145.536,303.600 146.537,303.600 147.624 C 303.600 148.711,303.420 149.600,303.200 149.600 C 302.978 149.600,302.800 150.667,302.800 152.000 C 302.800 153.333,302.622 154.400,302.400 154.400 C 302.180 154.400,302.000 155.289,302.000 156.376 C 302.000 157.463,301.820 158.464,301.600 158.600 C 301.380 158.736,301.200 159.726,301.200 160.800 C 301.200 161.874,301.020 162.864,300.800 163.000 C 300.580 163.136,300.400 164.227,300.400 165.424 C 300.400 166.621,300.237 167.600,300.037 167.600 C 299.837 167.600,299.567 168.590,299.437 169.800 C 299.307 171.010,299.093 172.990,298.963 174.200 C 298.833 175.410,298.563 176.400,298.363 176.400 C 298.163 176.400,298.000 177.313,298.000 178.429 C 298.000 179.653,297.774 180.684,297.429 181.029 C 296.771 181.686,292.983 181.820,292.600 181.200 C 292.464 180.980,291.463 180.800,290.376 180.800 C 289.289 180.800,288.400 180.620,288.400 180.400 C 288.400 180.180,287.410 180.000,286.200 180.000 C 284.990 180.000,284.000 179.820,284.000 179.600 C 284.000 179.378,282.933 179.200,281.600 179.200 C 280.267 179.200,279.200 179.022,279.200 178.800 C 279.200 178.580,278.311 178.400,277.224 178.400 C 276.137 178.400,275.136 178.220,275.000 178.000 C 274.864 177.780,273.874 177.600,272.800 177.600 C 271.726 177.600,270.736 177.420,270.600 177.200 C 270.464 176.980,269.384 176.800,268.200 176.800 C 267.016 176.800,265.950 176.643,265.831 176.450 C 265.712 176.258,264.666 175.986,263.507 175.846 C 254.795 174.795,253.226 174.565,252.964 174.300 C 252.513 173.845,247.200 173.937,247.200 174.400 C 247.200 174.620,246.922 174.800,246.582 174.800 C 245.136 174.800,243.200 177.736,243.200 179.928 C 243.200 180.774,243.065 181.600,242.900 181.763 C 242.622 182.038,241.929 186.656,241.349 192.106 C 241.213 193.375,240.945 194.511,240.751 194.630 C 240.558 194.749,240.400 195.737,240.400 196.824 C 240.400 197.911,240.220 198.800,240.000 198.800 C 239.778 198.800,239.600 199.867,239.600 201.200 C 239.600 202.533,239.422 203.600,239.200 203.600 C 238.980 203.600,238.800 204.579,238.800 205.776 C 238.800 206.973,238.620 208.064,238.400 208.200 C 238.180 208.336,238.000 208.808,238.000 209.250 C 238.000 209.691,237.100 210.929,236.000 212.000 C 234.900 213.071,234.000 214.190,234.000 214.486 C 234.000 214.781,233.640 215.283,233.200 215.600 C 232.760 215.917,232.400 216.482,232.400 216.855 C 232.400 217.228,232.265 217.593,232.100 217.667 C 231.668 217.859,230.000 221.172,230.000 221.838 C 230.000 222.147,229.820 222.400,229.600 222.400 C 229.380 222.400,229.200 222.749,229.200 223.176 C 229.200 223.603,229.020 224.064,228.800 224.200 C 228.580 224.336,228.400 224.876,228.400 225.400 C 228.400 225.924,228.220 226.464,228.000 226.600 C 227.780 226.736,227.600 227.341,227.600 227.944 C 227.600 228.547,227.437 229.211,227.239 229.420 C 226.666 230.023,226.340 233.293,226.146 240.404 L 225.965 247.007 223.784 248.004 C 222.584 248.552,221.602 249.135,221.601 249.300 C 221.601 249.465,221.240 249.600,220.800 249.600 C 220.360 249.600,220.000 249.780,220.000 250.000 C 220.000 250.220,219.764 250.400,219.475 250.400 C 219.187 250.400,218.564 250.760,218.092 251.200 C 217.620 251.640,217.044 252.000,216.813 252.000 C 216.582 252.000,215.828 252.540,215.137 253.200 C 214.446 253.860,213.710 254.400,213.501 254.400 C 213.292 254.400,212.617 254.940,212.000 255.600 C 211.383 256.260,210.772 256.800,210.640 256.800 C 210.509 256.800,209.734 257.430,208.918 258.200 C 208.101 258.970,207.291 259.600,207.117 259.600 C 206.563 259.600,206.725 195.835,207.280 195.280 C 207.544 195.016,208.174 194.800,208.680 194.800 C 209.186 194.800,209.600 194.620,209.600 194.400 C 209.600 194.180,209.960 194.000,210.400 194.000 C 210.840 194.000,211.200 193.820,211.200 193.600 C 211.200 193.380,211.560 193.200,212.000 193.200 C 212.440 193.200,212.800 193.020,212.800 192.800 C 212.800 192.580,213.160 192.400,213.600 192.400 C 214.040 192.400,214.400 192.234,214.400 192.032 C 214.400 191.829,214.940 191.545,215.600 191.400 C 216.260 191.255,216.800 190.983,216.800 190.795 C 216.800 190.607,217.159 190.340,217.598 190.201 C 218.036 190.062,218.621 189.728,218.898 189.461 C 219.174 189.193,220.030 188.539,220.800 188.007 C 221.570 187.475,223.010 186.161,224.000 185.087 C 224.990 184.013,226.745 182.135,227.900 180.914 C 229.055 179.692,230.000 178.447,230.000 178.146 C 230.000 177.846,230.150 177.600,230.332 177.600 C 230.515 177.600,230.920 177.105,231.232 176.500 C 231.544 175.895,231.889 175.310,231.999 175.200 C 232.546 174.655,234.000 171.430,234.000 170.762 C 234.000 170.343,234.180 170.000,234.400 170.000 C 234.620 170.000,234.800 169.460,234.800 168.800 C 234.800 168.140,234.980 167.600,235.200 167.600 C 235.420 167.600,235.600 166.880,235.600 166.000 C 235.600 165.120,235.780 164.400,236.000 164.400 C 236.253 164.400,236.400 161.475,236.400 156.424 C 236.400 151.537,236.245 148.351,236.000 148.200 C 235.780 148.064,235.600 147.164,235.600 146.200 C 235.600 145.236,235.420 144.336,235.200 144.200 C 234.980 144.064,234.800 143.434,234.800 142.800 C 234.800 142.166,234.620 141.536,234.400 141.400 C 234.180 141.264,234.000 140.623,234.000 139.976 C 234.000 139.329,233.820 138.800,233.600 138.800 C 233.380 138.800,233.200 138.361,233.200 137.824 C 233.200 137.287,233.020 136.736,232.800 136.600 C 232.580 136.464,232.400 136.003,232.400 135.576 C 232.400 135.149,232.220 134.800,232.000 134.800 C 231.780 134.800,231.600 134.260,231.600 133.600 C 231.600 132.940,231.420 132.400,231.200 132.400 C 230.980 132.400,230.800 132.040,230.800 131.600 C 230.800 131.160,230.620 130.800,230.400 130.800 C 230.180 130.800,230.000 130.440,230.000 130.000 C 230.000 129.560,229.820 129.200,229.600 129.200 C 229.380 129.200,229.200 128.840,229.200 128.400 C 229.200 127.960,229.020 127.600,228.800 127.600 C 228.580 127.600,228.400 127.240,228.400 126.800 C 228.400 126.360,228.220 126.000,228.000 126.000 C 227.780 126.000,227.600 125.730,227.600 125.400 C 227.600 125.070,227.420 124.800,227.200 124.800 C 226.980 124.800,226.800 124.440,226.800 124.000 C 226.800 123.560,226.620 123.200,226.400 123.200 C 226.180 123.200,226.000 122.840,226.000 122.400 C 226.000 121.960,225.820 121.600,225.600 121.600 C 225.380 121.600,225.200 121.336,225.200 121.014 C 225.200 120.201,223.924 117.600,223.526 117.600 C 223.347 117.600,223.200 117.364,223.200 117.075 C 223.200 116.787,222.840 116.164,222.400 115.692 C 221.960 115.220,221.600 114.556,221.600 114.217 C 221.600 113.878,221.450 113.600,221.268 113.600 C 221.085 113.600,220.680 113.108,220.368 112.506 C 219.718 111.253,218.985 110.266,217.700 108.912 C 217.205 108.390,216.800 107.784,216.800 107.564 C 216.800 107.344,216.350 106.714,215.800 106.164 C 215.250 105.614,214.800 104.998,214.800 104.795 C 214.800 104.592,214.170 103.797,213.400 103.027 C 212.630 102.257,212.000 101.441,212.000 101.214 C 212.000 100.987,211.280 100.059,210.400 99.152 C 209.520 98.245,208.797 97.300,208.793 97.052 C 208.789 96.803,207.558 95.385,206.057 93.900 L 203.328 91.200 200.000 91.200 L 196.672 91.200 193.943 93.900 C 192.442 95.385,191.211 96.803,191.207 97.052 C 191.203 97.300,190.480 98.245,189.600 99.152 C 188.720 100.059,188.000 100.987,188.000 101.214 C 188.000 101.441,187.370 102.257,186.600 103.027 C 185.830 103.797,185.200 104.592,185.200 104.795 C 185.200 104.998,184.750 105.614,184.200 106.164 C 183.650 106.714,183.200 107.360,183.200 107.600 C 183.200 107.840,182.795 108.456,182.300 108.968 C 180.981 110.333,180.270 111.276,179.632 112.506 C 179.320 113.108,178.915 113.600,178.732 113.600 C 178.550 113.600,178.400 113.878,178.400 114.217 C 178.400 114.556,178.040 115.220,177.600 115.692 C 177.160 116.164,176.800 116.787,176.800 117.075 C 176.800 117.364,176.655 117.600,176.477 117.600 C 176.123 117.600,174.800 120.388,174.800 121.134 C 174.800 121.390,174.620 121.600,174.400 121.600 C 174.180 121.600,174.000 121.960,174.000 122.400 C 174.000 122.840,173.820 123.200,173.600 123.200 C 173.380 123.200,173.200 123.560,173.200 124.000 C 173.200 124.440,173.020 124.800,172.800 124.800 C 172.580 124.800,172.400 125.070,172.400 125.400 C 172.400 125.730,172.220 126.000,172.000 126.000 C 171.780 126.000,171.600 126.360,171.600 126.800 C 171.600 127.240,171.420 127.600,171.200 127.600 C 170.980 127.600,170.800 127.960,170.800 128.400 C 170.800 128.840,170.620 129.200,170.400 129.200 C 170.180 129.200,170.000 129.560,170.000 130.000 C 170.000 130.440,169.820 130.800,169.600 130.800 C 169.380 130.800,169.200 131.160,169.200 131.600 C 169.200 132.040,169.020 132.400,168.800 132.400 C 168.580 132.400,168.400 132.940,168.400 133.600 C 168.400 134.260,168.220 134.800,168.000 134.800 C 167.780 134.800,167.600 135.149,167.600 135.576 C 167.600 136.003,167.420 136.464,167.200 136.600 C 166.980 136.736,166.800 137.287,166.800 137.824 C 166.800 138.361,166.620 138.800,166.400 138.800 C 166.180 138.800,166.000 139.329,166.000 139.976 C 166.000 140.623,165.820 141.264,165.600 141.400 C 165.380 141.536,165.200 142.166,165.200 142.800 C 165.200 143.434,165.020 144.064,164.800 144.200 C 164.580 144.336,164.400 145.236,164.400 146.200 C 164.400 147.164,164.220 148.064,164.000 148.200 C 163.755 148.351,163.600 151.537,163.600 156.424 C 163.600 161.475,163.747 164.400,164.000 164.400 C 164.220 164.400,164.400 165.120,164.400 166.000 C 164.400 166.880,164.580 167.600,164.800 167.600 C 165.020 167.600,165.200 168.140,165.200 168.800 C 165.200 169.460,165.380 170.000,165.600 170.000 C 165.820 170.000,166.000 170.343,166.000 170.762 C 166.000 171.430,167.454 174.655,168.001 175.200 C 168.111 175.310,168.456 175.895,168.768 176.500 C 169.080 177.105,169.485 177.600,169.668 177.600 C 169.850 177.600,170.000 177.846,170.000 178.146 C 170.000 178.447,170.945 179.682,172.100 180.892 C 173.255 182.102,175.010 183.980,176.000 185.065 C 176.990 186.150,178.430 187.471,179.200 188.000 C 179.970 188.529,180.690 189.074,180.800 189.212 C 180.910 189.350,181.990 189.989,183.200 190.632 C 184.410 191.274,185.460 191.935,185.533 192.100 C 185.607 192.265,186.012 192.400,186.433 192.400 C 186.855 192.400,187.200 192.580,187.200 192.800 C 187.200 193.020,187.560 193.200,188.000 193.200 C 188.440 193.200,188.800 193.380,188.800 193.600 C 188.800 193.820,189.160 194.000,189.600 194.000 C 190.040 194.000,190.400 194.180,190.400 194.400 C 190.400 194.620,190.814 194.800,191.320 194.800 C 193.242 194.800,193.200 194.191,193.200 221.880 C 193.200 236.246,193.115 248.000,193.011 248.000 C 192.906 248.000,192.041 247.235,191.088 246.300 C 188.921 244.174,186.604 242.366,185.132 241.650 C 184.509 241.348,184.000 240.943,184.000 240.750 C 184.000 240.558,183.680 240.400,183.288 240.400 C 182.897 240.400,182.317 240.040,182.000 239.600 C 181.683 239.160,181.103 238.800,180.712 238.800 C 180.320 238.800,180.000 238.620,180.000 238.400 C 180.000 238.180,179.764 238.000,179.475 238.000 C 179.187 238.000,178.564 237.640,178.092 237.200 C 177.620 236.760,176.956 236.400,176.617 236.400 C 176.278 236.400,176.000 236.220,176.000 236.000 C 176.000 235.780,175.659 235.600,175.243 235.600 C 174.117 235.600,174.000 234.905,174.000 228.191 C 174.000 224.527,173.839 221.947,173.600 221.800 C 173.380 221.664,173.200 220.764,173.200 219.800 C 173.200 218.836,173.020 217.936,172.800 217.800 C 172.580 217.664,172.400 216.944,172.400 216.200 C 172.400 215.456,172.220 214.736,172.000 214.600 C 171.780 214.464,171.600 213.924,171.600 213.400 C 171.600 212.876,171.420 212.336,171.200 212.200 C 170.980 212.064,170.800 211.603,170.800 211.176 C 170.800 210.749,170.620 210.400,170.400 210.400 C 170.180 210.400,170.000 210.147,170.000 209.838 C 170.000 209.081,168.335 206.000,167.926 206.000 C 167.747 206.000,167.600 205.640,167.600 205.200 C 167.600 204.760,167.450 204.400,167.268 204.400 C 167.085 204.400,166.680 203.911,166.368 203.314 C 165.278 201.229,158.195 194.000,157.242 194.000 C 157.053 194.000,156.672 193.728,156.397 193.396 C 156.121 193.063,155.019 192.390,153.948 191.898 C 152.876 191.407,152.000 190.869,152.000 190.702 C 152.000 190.536,151.550 190.400,151.000 190.400 C 150.450 190.400,150.000 190.220,150.000 190.000 C 150.000 189.780,149.550 189.600,149.000 189.600 C 148.450 189.600,148.000 189.420,148.000 189.200 C 148.000 188.980,147.460 188.800,146.800 188.800 C 146.140 188.800,145.600 188.620,145.600 188.400 C 145.600 188.180,145.060 188.000,144.400 188.000 C 143.740 188.000,143.200 187.820,143.200 187.600 C 143.200 187.380,142.480 187.200,141.600 187.200 C 140.720 187.200,140.000 187.020,140.000 186.800 C 140.000 186.574,138.867 186.400,137.400 186.400 C 135.933 186.400,134.800 186.226,134.800 186.000 C 134.800 185.744,131.267 185.600,125.000 185.600 C 118.733 185.600,115.200 185.744,115.200 186.000 C 115.200 186.231,113.933 186.400,112.200 186.400 C 110.467 186.400,109.200 186.569,109.200 186.800 C 109.200 187.022,108.133 187.200,106.800 187.200 C 105.467 187.200,104.400 187.378,104.400 187.600 C 104.400 187.820,103.500 188.000,102.400 188.000 C 101.300 188.000,100.400 188.180,100.400 188.400 C 100.400 188.620,99.691 188.800,98.824 188.800 C 97.957 188.800,97.136 188.980,97.000 189.200 C 96.864 189.420,96.144 189.600,95.400 189.600 C 94.656 189.600,93.936 189.780,93.800 190.000 C 93.664 190.220,93.023 190.400,92.376 190.400 C 91.729 190.400,91.200 190.580,91.200 190.800 C 91.200 191.020,90.491 191.200,89.624 191.200 C 88.757 191.200,87.936 191.380,87.800 191.600 C 87.664 191.820,87.234 192.000,86.844 192.000 C 84.799 192.000,80.582 193.791,79.124 195.277 C 77.590 196.842,76.677 203.600,78.000 203.600 C 78.220 203.600,78.400 204.039,78.400 204.576 C 78.400 205.113,78.580 205.664,78.800 205.800 C 79.020 205.936,79.200 206.487,79.200 207.024 C 79.200 207.561,79.380 208.000,79.600 208.000 C 79.820 208.000,80.000 208.360,80.000 208.800 C 80.000 209.240,80.180 209.600,80.400 209.600 C 80.620 209.600,80.800 210.039,80.800 210.576 C 80.800 211.113,80.980 211.664,81.200 211.800 C 81.420 211.936,81.600 212.397,81.600 212.824 C 81.600 213.251,81.780 213.600,82.000 213.600 C 82.220 213.600,82.400 213.960,82.400 214.400 C 82.400 214.840,82.580 215.200,82.800 215.200 C 83.020 215.200,83.200 215.560,83.200 216.000 C 83.200 216.440,83.380 216.800,83.600 216.800 C 83.820 216.800,84.000 217.160,84.000 217.600 C 84.000 218.040,84.180 218.400,84.400 218.400 C 84.620 218.400,84.800 218.760,84.800 219.200 C 84.800 219.640,84.980 220.000,85.200 220.000 C 85.420 220.000,85.600 220.360,85.600 220.800 C 85.600 221.240,85.780 221.600,86.000 221.600 C 86.220 221.600,86.400 221.960,86.400 222.400 C 86.400 222.840,86.546 223.200,86.725 223.200 C 86.904 223.200,87.298 223.830,87.600 224.600 C 87.902 225.370,88.296 226.000,88.475 226.000 C 88.654 226.000,88.800 226.320,88.800 226.712 C 88.800 227.103,89.160 227.683,89.600 228.000 C 90.040 228.317,90.400 228.897,90.400 229.288 C 90.400 229.680,90.580 230.000,90.800 230.000 C 91.020 230.000,91.200 230.360,91.200 230.800 C 91.200 231.240,91.353 231.600,91.539 231.600 C 91.726 231.600,92.203 232.320,92.600 233.200 C 92.997 234.080,93.429 234.805,93.561 234.811 C 93.692 234.817,94.241 235.537,94.780 236.411 C 95.320 237.285,95.905 238.000,96.080 238.000 C 96.256 238.000,96.400 238.208,96.400 238.462 C 96.400 238.717,97.120 239.631,98.000 240.493 C 98.880 241.356,99.600 242.233,99.600 242.444 C 99.600 243.323,111.003 254.025,112.264 254.329 C 112.559 254.400,112.800 254.604,112.800 254.781 C 112.800 255.203,120.051 258.800,120.900 258.800 C 121.259 258.800,121.664 258.980,121.800 259.200 C 121.936 259.420,122.476 259.600,123.000 259.600 C 123.524 259.600,124.064 259.780,124.200 260.000 C 124.336 260.220,125.067 260.400,125.824 260.400 C 126.581 260.400,127.200 260.580,127.200 260.800 C 127.200 261.035,128.600 261.200,130.600 261.200 C 132.600 261.200,134.000 261.365,134.000 261.600 C 134.000 261.820,134.810 262.000,135.800 262.000 C 136.790 262.000,137.600 261.820,137.600 261.600 C 137.600 261.367,138.933 261.200,140.800 261.200 C 142.667 261.200,144.000 261.033,144.000 260.800 C 144.000 260.580,144.720 260.400,145.600 260.400 C 146.480 260.400,147.200 260.220,147.200 260.000 C 147.200 259.780,147.740 259.600,148.400 259.600 C 149.060 259.600,149.600 259.420,149.600 259.200 C 149.600 258.980,150.052 258.800,150.605 258.800 C 151.800 258.800,157.112 256.314,158.318 255.190 C 158.785 254.756,159.404 254.400,159.695 254.400 C 159.986 254.400,160.483 254.040,160.800 253.600 C 161.117 253.160,161.609 252.800,161.892 252.800 C 162.175 252.800,162.972 252.260,163.663 251.600 C 164.354 250.940,165.090 250.400,165.299 250.400 C 165.508 250.400,166.183 249.860,166.800 249.200 C 167.884 248.039,170.000 247.510,170.000 248.400 C 170.000 248.620,170.360 248.800,170.800 248.800 C 171.240 248.800,171.600 248.980,171.600 249.200 C 171.600 249.420,171.920 249.600,172.312 249.600 C 172.703 249.600,173.283 249.960,173.600 250.400 C 173.917 250.840,174.457 251.200,174.800 251.200 C 175.143 251.200,175.683 251.560,176.000 252.000 C 176.317 252.440,176.741 252.800,176.941 252.800 C 177.142 252.800,177.597 253.124,177.953 253.519 C 178.309 253.914,179.230 254.677,180.000 255.213 C 182.439 256.911,189.600 263.817,189.600 264.470 C 189.600 264.695,190.113 265.358,190.741 265.945 C 193.266 268.304,193.200 267.697,193.200 288.580 L 193.200 307.600 192.200 307.600 C 191.650 307.600,191.200 307.780,191.200 308.000 C 191.200 308.220,190.756 308.400,190.214 308.400 C 188.459 308.400,180.785 311.409,180.000 312.405 C 179.257 313.348,178.228 313.121,176.817 311.704 C 175.994 310.877,174.811 309.840,174.188 309.400 C 173.565 308.960,172.646 308.195,172.146 307.700 C 171.646 307.205,170.998 306.800,170.706 306.800 C 170.415 306.800,169.917 306.440,169.600 306.000 C 169.283 305.560,168.703 305.200,168.312 305.200 C 167.920 305.200,167.600 305.020,167.600 304.800 C 167.600 304.580,167.240 304.400,166.800 304.400 C 166.360 304.400,166.000 304.220,166.000 304.000 C 166.000 303.780,165.640 303.600,165.200 303.600 C 164.760 303.600,164.400 303.420,164.400 303.200 C 164.400 302.980,164.040 302.800,163.600 302.800 C 163.160 302.800,162.800 302.620,162.800 302.400 C 162.800 302.180,162.260 302.000,161.600 302.000 C 160.940 302.000,160.400 301.820,160.400 301.600 C 160.400 301.380,159.961 301.200,159.424 301.200 C 158.887 301.200,158.336 301.020,158.200 300.800 C 158.064 300.580,157.333 300.400,156.576 300.400 C 155.819 300.400,155.200 300.220,155.200 300.000 C 155.200 299.771,154.000 299.600,152.400 299.600 C 150.800 299.600,149.600 299.429,149.600 299.200 C 149.600 298.959,147.933 298.800,145.400 298.800 C 142.867 298.800,141.200 298.959,141.200 299.200 C 141.200 299.422,140.141 299.600,138.824 299.600 C 137.517 299.600,136.336 299.780,136.200 300.000 C 136.064 300.220,135.344 300.400,134.600 300.400 C 133.856 300.400,133.136 300.580,133.000 300.800 C 132.864 301.020,132.234 301.200,131.600 301.200 C 130.966 301.200,130.336 301.380,130.200 301.600 C 130.064 301.820,129.603 302.000,129.176 302.000 C 128.749 302.000,128.400 302.180,128.400 302.400 C 128.400 302.620,128.040 302.800,127.600 302.800 C 127.160 302.800,126.800 302.980,126.800 303.200 C 126.800 303.420,126.390 303.600,125.888 303.600 C 125.387 303.600,124.717 303.960,124.400 304.400 C 124.083 304.840,123.503 305.200,123.112 305.200 C 122.720 305.200,122.400 305.380,122.400 305.600 C 122.400 305.820,122.112 306.000,121.760 306.000 C 121.409 306.000,120.617 306.540,120.000 307.200 C 119.383 307.860,118.674 308.400,118.423 308.400 C 117.568 308.400,112.077 313.669,110.958 315.563 C 110.556 316.243,110.114 316.800,109.975 316.800 C 109.835 316.800,109.397 317.520,109.000 318.400 C 108.603 319.280,108.126 320.000,107.939 320.000 C 107.753 320.000,107.600 320.360,107.600 320.800 C 107.600 321.240,107.420 321.600,107.200 321.600 C 106.980 321.600,106.800 321.960,106.800 322.400 C 106.800 322.840,106.620 323.200,106.400 323.200 C 106.180 323.200,106.000 323.560,106.000 324.000 C 106.000 324.440,105.820 324.800,105.600 324.800 C 105.380 324.800,105.200 325.250,105.200 325.800 C 105.200 326.350,105.020 326.800,104.800 326.800 C 104.580 326.800,104.400 327.231,104.400 327.757 C 104.400 329.107,103.908 329.200,96.767 329.200 C 92.789 329.200,90.400 329.350,90.400 329.600 C 90.400 329.822,89.333 330.000,88.000 330.000 C 86.667 330.000,85.600 330.178,85.600 330.400 C 85.600 330.620,84.880 330.800,84.000 330.800 C 83.120 330.800,82.400 330.980,82.400 331.200 C 82.400 331.420,81.871 331.600,81.224 331.600 C 80.577 331.600,79.936 331.780,79.800 332.000 C 79.664 332.220,79.124 332.400,78.600 332.400 C 78.076 332.400,77.536 332.580,77.400 332.800 C 77.264 333.020,76.803 333.200,76.376 333.200 C 75.949 333.200,75.600 333.380,75.600 333.600 C 75.600 333.820,75.060 334.000,74.400 334.000 C 73.740 334.000,73.200 334.180,73.200 334.400 C 73.200 334.620,72.840 334.800,72.400 334.800 C 71.960 334.800,71.600 334.980,71.600 335.200 C 71.600 335.420,71.240 335.600,70.800 335.600 C 70.360 335.600,70.000 335.780,70.000 336.000 C 70.000 336.220,69.640 336.400,69.200 336.400 C 68.760 336.400,68.400 336.580,68.400 336.800 C 68.400 337.020,68.164 337.200,67.875 337.200 C 67.587 337.200,66.964 337.560,66.492 338.000 C 66.020 338.440,65.396 338.800,65.105 338.800 C 64.814 338.800,64.317 339.160,64.000 339.600 C 63.683 340.040,63.169 340.400,62.859 340.400 C 62.548 340.400,62.003 340.732,61.647 341.137 C 61.291 341.543,60.778 341.948,60.508 342.037 C 58.789 342.605,48.000 353.447,48.000 354.606 C 48.000 355.288,45.803 355.452,45.400 354.800 C 45.067 354.261,33.200 354.261,33.200 354.800 C 33.200 355.020,32.311 355.200,31.224 355.200 C 30.137 355.200,29.136 355.380,29.000 355.600 C 28.864 355.820,28.234 356.000,27.600 356.000 C 26.966 356.000,26.336 356.180,26.200 356.400 C 26.064 356.620,25.513 356.800,24.976 356.800 C 24.439 356.800,24.000 356.980,24.000 357.200 C 24.000 357.420,23.640 357.600,23.200 357.600 C 22.760 357.600,22.400 357.780,22.400 358.000 C 22.400 358.220,22.084 358.400,21.697 358.400 C 20.900 358.400,17.318 360.225,16.489 361.053 C 16.189 361.354,15.780 361.600,15.582 361.600 C 15.383 361.600,14.411 362.410,13.421 363.400 C 12.431 364.390,11.481 365.201,11.311 365.203 C 11.140 365.204,10.578 365.826,10.061 366.584 C 9.545 367.342,8.645 368.469,8.061 369.088 C 7.478 369.707,6.745 370.706,6.432 371.307 C 6.120 371.908,5.715 372.400,5.532 372.400 C 5.350 372.400,5.200 372.720,5.200 373.112 C 5.200 373.503,4.840 374.083,4.400 374.400 C 3.960 374.717,3.600 375.297,3.600 375.688 C 3.600 376.080,3.420 376.400,3.200 376.400 C 2.980 376.400,2.800 376.850,2.800 377.400 C 2.800 377.950,2.620 378.400,2.400 378.400 C 2.180 378.400,2.000 378.749,2.000 379.176 C 2.000 379.603,1.820 380.064,1.600 380.200 C 1.380 380.336,1.200 380.851,1.200 381.344 C 1.200 381.837,0.975 382.465,0.700 382.740 C -0.228 383.668,0.012 398.064,0.971 399.027 C 2.187 400.245,397.813 400.245,399.029 399.027 C 399.988 398.064,400.228 383.668,399.300 382.740 C 399.025 382.465,398.800 381.914,398.800 381.515 C 398.800 381.116,398.620 380.432,398.400 379.995 C 398.180 379.558,397.820 378.842,397.600 378.405 C 397.380 377.968,397.200 377.338,397.200 377.005 C 397.200 376.672,397.020 376.400,396.800 376.400 C 396.580 376.400,396.400 376.080,396.400 375.688 C 396.400 375.297,396.040 374.717,395.600 374.400 C 395.160 374.083,394.800 373.503,394.800 373.112 C 394.800 372.720,394.650 372.400,394.468 372.400 C 394.285 372.400,393.880 371.905,393.568 371.300 C 393.255 370.695,392.640 369.813,392.200 369.340 C 391.760 368.868,390.950 367.886,390.400 367.159 C 389.850 366.432,389.067 365.559,388.660 365.219 C 388.253 364.878,387.100 363.835,386.097 362.900 C 385.093 361.965,384.046 361.200,383.770 361.200 C 383.493 361.200,383.207 361.043,383.133 360.851 C 382.953 360.379,378.981 358.400,378.213 358.400 C 377.876 358.400,377.600 358.220,377.600 358.000 C 377.600 357.780,377.240 357.600,376.800 357.600 C 376.360 357.600,376.000 357.420,376.000 357.200 C 376.000 356.980,375.561 356.800,375.024 356.800 C 374.487 356.800,373.936 356.620,373.800 356.400 C 373.664 356.180,373.034 356.000,372.400 356.000 C 371.766 356.000,371.136 355.820,371.000 355.600 C 370.864 355.380,369.863 355.200,368.776 355.200 C 367.689 355.200,366.800 355.020,366.800 354.800 C 366.800 354.261,354.933 354.261,354.600 354.800 C 354.183 355.475,352.000 355.285,352.000 354.574 C 352.000 354.230,351.100 353.071,350.000 352.000 C 348.900 350.929,348.000 349.870,348.000 349.648 C 348.000 349.426,347.086 348.469,345.968 347.522 C 344.851 346.575,343.013 344.945,341.884 343.900 C 340.754 342.855,339.638 342.000,339.404 342.000 C 339.169 342.000,338.717 341.640,338.400 341.200 C 338.083 340.760,337.543 340.400,337.200 340.400 C 336.857 340.400,336.317 340.040,336.000 339.600 C 335.683 339.160,335.103 338.800,334.712 338.800 C 334.320 338.800,334.000 338.620,334.000 338.400 C 334.000 338.180,333.730 338.000,333.400 338.000 C 333.070 338.000,332.800 337.820,332.800 337.600 C 332.800 337.380,332.530 337.200,332.200 337.200 C 331.870 337.200,331.600 337.020,331.600 336.800 C 331.600 336.580,331.240 336.400,330.800 336.400 C 330.360 336.400,330.000 336.220,330.000 336.000 C 330.000 335.780,330.278 335.600,330.617 335.600 C 330.956 335.600,331.620 335.240,332.092 334.800 C 332.564 334.360,333.187 334.000,333.475 334.000 C 333.764 334.000,334.000 333.820,334.000 333.600 C 334.000 333.380,334.320 333.200,334.712 333.200 C 335.103 333.200,335.683 332.840,336.000 332.400 C 336.317 331.960,336.814 331.600,337.105 331.600 C 337.396 331.600,338.020 331.240,338.492 330.800 C 338.964 330.360,339.587 330.000,339.875 330.000 C 340.164 330.000,340.400 329.820,340.400 329.600 C 340.400 329.380,340.630 329.200,340.912 329.200 C 341.193 329.200,341.683 328.840,342.000 328.400 C 342.317 327.960,342.897 327.600,343.288 327.600 C 343.680 327.600,344.000 327.420,344.000 327.200 C 344.000 326.980,344.236 326.800,344.525 326.800 C 344.813 326.800,345.436 326.440,345.908 326.000 C 346.380 325.560,347.031 325.200,347.355 325.200 C 347.678 325.200,348.186 324.975,348.484 324.700 C 349.226 324.014,351.251 322.798,352.100 322.529 C 352.485 322.407,352.800 322.148,352.800 321.953 C 352.800 321.759,353.036 321.600,353.325 321.600 C 353.613 321.600,354.198 321.285,354.625 320.900 C 355.051 320.515,355.892 319.946,356.493 319.636 C 357.095 319.326,357.942 318.741,358.377 318.336 C 358.811 317.931,359.327 317.600,359.524 317.600 C 359.721 317.600,360.446 317.060,361.137 316.400 C 361.828 315.740,362.577 315.200,362.802 315.200 C 363.027 315.200,364.720 313.691,366.564 311.847 C 368.408 310.003,370.071 308.428,370.259 308.347 C 370.568 308.214,372.411 306.158,374.036 304.133 C 374.385 303.697,375.015 302.724,375.436 301.970 C 375.856 301.217,376.290 300.510,376.401 300.400 C 376.511 300.290,376.856 299.705,377.168 299.100 C 377.480 298.495,377.885 298.000,378.068 298.000 C 378.250 298.000,378.400 297.640,378.400 297.200 C 378.400 296.760,378.580 296.400,378.800 296.400 C 379.020 296.400,379.200 296.040,379.200 295.600 C 379.200 295.160,379.380 294.800,379.600 294.800 C 379.820 294.800,380.000 294.440,380.000 294.000 C 380.000 293.560,380.180 293.200,380.400 293.200 C 380.620 293.200,380.800 292.840,380.800 292.400 C 380.800 291.960,380.980 291.600,381.200 291.600 C 381.420 291.600,381.600 291.150,381.600 290.600 C 381.600 290.050,381.780 289.600,382.000 289.600 C 382.220 289.600,382.400 289.161,382.400 288.624 C 382.400 288.087,382.580 287.536,382.800 287.400 C 383.020 287.264,383.200 286.623,383.200 285.976 C 383.200 285.329,383.380 284.800,383.600 284.800 C 383.820 284.800,384.000 284.271,384.000 283.624 C 384.000 282.977,384.180 282.336,384.400 282.200 C 384.620 282.064,384.800 281.153,384.800 280.176 C 384.800 279.199,384.980 278.400,385.200 278.400 C 385.420 278.400,385.600 277.421,385.600 276.224 C 385.600 275.027,385.780 273.936,386.000 273.800 C 386.220 273.664,386.400 272.674,386.400 271.600 C 386.400 270.526,386.580 269.536,386.800 269.400 C 387.020 269.264,387.200 268.274,387.200 267.200 C 387.200 266.126,387.380 265.136,387.600 265.000 C 387.820 264.864,388.000 263.773,388.000 262.576 C 388.000 261.379,388.180 260.400,388.400 260.400 C 388.620 260.400,388.800 259.536,388.800 258.480 C 388.800 257.424,388.963 256.389,389.163 256.180 C 389.363 255.971,389.633 254.855,389.763 253.700 C 389.893 252.545,390.109 250.655,390.241 249.500 C 390.374 248.345,390.630 247.218,390.810 246.997 C 390.990 246.775,391.266 244.840,391.424 242.697 C 391.581 240.553,391.865 238.800,392.055 238.800 C 392.245 238.800,392.400 237.720,392.400 236.400 C 392.400 235.067,392.578 234.000,392.800 234.000 C 393.020 234.000,393.200 233.111,393.200 232.024 C 393.200 230.937,393.380 229.936,393.600 229.800 C 393.820 229.664,394.000 228.573,394.000 227.376 C 394.000 226.179,394.180 225.200,394.400 225.200 C 394.620 225.200,394.800 224.210,394.800 223.000 C 394.800 221.790,394.980 220.800,395.200 220.800 C 395.420 220.800,395.600 219.911,395.600 218.824 C 395.600 217.737,395.780 216.736,396.000 216.600 C 396.220 216.464,396.400 215.373,396.400 214.176 C 396.400 212.979,396.580 212.000,396.800 212.000 C 397.020 212.000,397.200 211.021,397.200 209.824 C 397.200 208.627,397.380 207.536,397.600 207.400 C 397.820 207.264,398.000 206.353,398.000 205.376 C 398.000 204.399,397.820 203.600,397.600 203.600 C 397.380 203.600,397.200 203.328,397.200 202.995 C 397.200 201.706,395.605 199.600,394.629 199.600 C 394.283 199.600,394.000 199.420,394.000 199.200 C 394.000 198.980,393.201 198.800,392.224 198.800 C 391.247 198.800,390.336 198.620,390.200 198.400 C 390.064 198.180,389.074 198.000,388.000 198.000 C 386.926 198.000,385.936 197.820,385.800 197.600 C 385.141 196.534,377.343 197.141,376.142 198.351 C 374.076 200.434,373.304 202.000,374.344 202.000 C 374.534 202.000,374.794 202.886,374.922 203.969 C 375.321 207.339,376.832 208.681,381.200 209.546 C 384.543 210.209,384.610 210.292,384.060 213.079 C 383.454 216.145,382.255 222.843,381.032 230.000 C 380.144 235.195,379.537 238.649,378.395 245.000 C 378.197 246.100,377.659 249.160,377.200 251.800 C 376.741 254.440,376.193 257.545,375.983 258.700 C 375.772 259.855,375.411 261.835,375.180 263.100 C 374.949 264.365,374.598 266.390,374.400 267.600 C 374.008 269.993,373.448 273.100,372.760 276.700 C 372.518 277.965,372.228 279.497,372.114 280.105 C 372.001 280.713,371.749 281.308,371.554 281.429 C 371.359 281.549,371.200 281.999,371.200 282.428 C 371.200 285.658,364.812 296.034,359.624 301.229 C 356.914 303.943,348.344 310.400,347.452 310.400 C 347.301 310.400,338.302 315.997,328.800 322.002 C 315.043 330.696,313.829 331.172,307.236 330.458 C 304.906 330.205,301.289 329.999,299.198 329.999 L 295.395 330.000 294.864 328.700 C 294.572 327.985,294.191 327.040,294.019 326.600 C 290.573 317.831,281.599 308.133,273.600 304.532 C 268.688 302.321,266.693 301.693,261.152 300.615 C 259.385 300.271,249.790 287.576,247.234 282.200 C 245.234 277.995,244.271 275.223,243.236 270.694 C 242.362 266.874,242.753 266.306,245.291 267.708 C 270.126 281.428,296.343 267.077,314.545 229.800 C 317.720 223.297,318.039 222.577,319.589 218.400 C 320.283 216.530,321.020 214.587,321.226 214.081 C 322.631 210.631,320.634 207.288,316.400 206.002 C 315.410 205.702,314.420 205.332,314.200 205.182 C 313.980 205.031,313.350 204.806,312.800 204.682 C 312.250 204.557,311.170 204.273,310.400 204.050 C 303.754 202.127,299.968 201.248,292.900 199.991 C 280.171 197.726,266.442 197.896,257.600 200.428 C 253.843 201.503,252.175 201.620,252.270 200.800 C 252.620 197.777,254.604 187.747,254.889 187.560 C 255.323 187.274,257.853 187.672,273.200 190.443 C 274.410 190.661,276.390 191.002,277.600 191.200 C 279.660 191.537,280.894 191.757,286.700 192.822 C 287.965 193.054,289.900 193.399,291.000 193.590 C 292.960 193.929,296.218 194.510,300.200 195.230 C 301.300 195.429,303.280 195.776,304.600 196.000 C 305.920 196.224,307.900 196.571,309.000 196.770 C 310.100 196.969,312.125 197.327,313.500 197.566 C 314.875 197.805,317.125 198.195,318.500 198.434 C 319.875 198.673,321.810 199.018,322.800 199.200 C 323.790 199.382,325.680 199.718,327.000 199.946 C 328.320 200.174,330.390 200.541,331.600 200.761 C 332.810 200.982,335.960 201.527,338.600 201.971 C 341.240 202.415,345.370 203.144,347.777 203.590 C 355.178 204.960,357.187 204.496,358.873 201.024 C 359.350 200.042,359.889 199.331,360.070 199.443 C 360.252 199.555,360.400 199.017,360.400 198.247 C 360.400 197.477,360.220 196.736,360.000 196.600 C 359.780 196.464,359.600 196.095,359.600 195.781 C 359.600 193.481,356.394 192.186,348.400 191.256 L 346.200 191.000 346.336 188.800 C 346.411 187.590,346.636 186.429,346.836 186.220 C 347.036 186.011,347.200 184.886,347.200 183.720 C 347.200 182.554,347.380 181.600,347.600 181.600 C 347.822 181.600,348.000 180.533,348.000 179.200 C 348.000 177.867,348.178 176.800,348.400 176.800 C 348.620 176.800,348.800 175.900,348.800 174.800 C 348.800 173.700,348.980 172.800,349.200 172.800 C 349.420 172.800,349.600 171.810,349.600 170.600 C 349.600 169.390,349.780 168.400,350.000 168.400 C 350.222 168.400,350.400 167.333,350.400 166.000 C 350.400 164.667,350.578 163.600,350.800 163.600 C 351.020 163.600,351.200 162.711,351.200 161.624 C 351.200 160.537,351.380 159.536,351.600 159.400 C 351.820 159.264,352.000 158.274,352.000 157.200 C 352.000 156.126,352.180 155.136,352.400 155.000 C 352.620 154.864,352.800 153.773,352.800 152.576 C 352.800 151.379,352.963 150.400,353.163 150.400 C 353.504 150.400,353.619 149.699,354.231 143.900 C 354.365 142.635,354.637 141.600,354.837 141.600 C 355.037 141.600,355.200 140.621,355.200 139.424 C 355.200 138.227,355.380 137.136,355.600 137.000 C 355.820 136.864,356.000 135.899,356.000 134.856 C 356.000 133.813,356.163 132.789,356.363 132.580 C 356.563 132.371,356.833 131.255,356.963 130.100 C 357.093 128.945,357.309 127.055,357.441 125.900 C 357.574 124.745,357.830 123.618,358.010 123.397 C 358.190 123.175,358.466 121.240,358.624 119.097 C 358.781 116.953,359.065 115.200,359.255 115.200 C 359.445 115.200,359.600 114.120,359.600 112.800 C 359.600 111.467,359.778 110.400,360.000 110.400 C 360.220 110.400,360.400 109.500,360.400 108.400 C 360.400 107.300,360.580 106.400,360.800 106.400 C 361.020 106.400,361.200 105.410,361.200 104.200 C 361.200 102.990,361.380 102.000,361.600 102.000 C 361.822 102.000,362.000 100.933,362.000 99.600 C 362.000 98.267,362.178 97.200,362.400 97.200 C 362.620 97.200,362.800 96.311,362.800 95.224 C 362.800 94.137,362.980 93.136,363.200 93.000 C 363.420 92.864,363.600 91.874,363.600 90.800 C 363.600 89.726,363.780 88.736,364.000 88.600 C 364.220 88.464,364.400 87.373,364.400 86.176 C 364.400 84.979,364.563 84.000,364.763 84.000 C 364.963 84.000,365.233 83.010,365.363 81.800 C 365.493 80.590,365.707 78.610,365.837 77.400 C 365.967 76.190,366.237 75.200,366.437 75.200 C 366.637 75.200,366.800 74.210,366.800 73.000 C 366.800 71.790,366.980 70.800,367.200 70.800 C 367.420 70.800,367.600 69.821,367.600 68.624 C 367.600 67.427,367.780 66.336,368.000 66.200 C 368.220 66.064,368.400 65.063,368.400 63.976 C 368.400 62.889,368.580 62.000,368.800 62.000 C 369.020 62.000,369.200 61.460,369.200 60.800 C 369.200 59.667,369.289 59.600,370.800 59.600 C 371.680 59.600,372.400 59.780,372.400 60.000 C 372.400 60.222,373.467 60.400,374.800 60.400 C 376.133 60.400,377.200 60.578,377.200 60.800 C 377.200 61.020,378.190 61.200,379.400 61.200 C 380.610 61.200,381.600 61.380,381.600 61.600 C 381.600 61.820,382.489 62.000,383.576 62.000 C 384.663 62.000,385.664 62.180,385.800 62.400 C 385.936 62.620,386.847 62.800,387.824 62.800 C 388.801 62.800,389.600 62.620,389.600 62.400 C 389.600 62.180,389.966 62.000,390.413 62.000 C 391.582 62.000,394.000 59.447,394.000 58.213 C 394.000 57.656,394.180 57.200,394.400 57.200 C 394.620 57.200,394.800 56.210,394.800 55.000 C 394.800 53.790,394.980 52.800,395.200 52.800 C 395.420 52.800,395.600 51.821,395.600 50.624 C 395.600 49.427,395.780 48.336,396.000 48.200 C 396.220 48.064,396.400 47.063,396.400 45.976 C 396.400 44.889,396.580 44.000,396.800 44.000 C 397.020 44.000,397.200 43.021,397.200 41.824 C 397.200 40.627,397.380 39.536,397.600 39.400 C 397.820 39.264,398.000 38.173,398.000 36.976 C 398.000 35.779,398.180 34.800,398.400 34.800 C 398.620 34.800,398.800 33.936,398.800 32.880 C 398.800 31.824,398.985 30.775,399.212 30.548 C 399.439 30.321,399.735 27.173,399.872 23.529 L 400.121 16.922 398.801 15.661 C 398.075 14.967,397.058 14.400,396.541 14.400 C 396.023 14.400,395.600 14.220,395.600 14.000 C 395.600 13.780,394.621 13.600,393.424 13.600 C 392.227 13.600,391.136 13.420,391.000 13.200 C 390.864 12.980,389.874 12.800,388.800 12.800 C 387.726 12.800,386.736 12.620,386.600 12.400 C 386.464 12.180,385.474 12.000,384.400 12.000 C 383.326 12.000,382.336 11.820,382.200 11.600 C 382.064 11.380,380.973 11.200,379.776 11.200 C 378.579 11.200,377.600 11.037,377.600 10.837 C 377.600 10.637,376.655 10.378,375.500 10.261 C 374.345 10.144,372.320 9.854,371.000 9.618 C 369.680 9.381,366.755 8.976,364.500 8.718 C 362.245 8.461,360.400 8.104,360.400 7.925 C 360.400 7.746,359.421 7.600,358.224 7.600 C 357.027 7.600,355.936 7.420,355.800 7.200 C 355.664 6.980,354.573 6.800,353.376 6.800 C 352.179 6.800,351.200 6.620,351.200 6.400 C 351.200 6.180,350.300 6.000,349.200 6.000 C 348.100 6.000,347.200 5.820,347.200 5.600 C 347.200 5.378,346.133 5.200,344.800 5.200 C 343.467 5.200,342.400 5.022,342.400 4.800 C 342.400 4.580,341.410 4.400,340.200 4.400 C 338.990 4.400,338.000 4.220,338.000 4.000 C 338.000 3.780,337.111 3.600,336.024 3.600 C 334.937 3.600,333.936 3.420,333.800 3.200 C 333.664 2.980,332.573 2.800,331.376 2.800 C 330.179 2.800,329.200 2.620,329.200 2.400 C 329.200 2.180,328.221 2.000,327.024 2.000 C 325.827 2.000,324.736 1.820,324.600 1.600 C 324.464 1.380,323.499 1.200,322.456 1.200 C 321.413 1.200,320.370 1.010,320.138 0.778 C 319.900 0.540,316.951 0.255,313.358 0.122 L 307.000 -0.113 305.700 1.104 M320.400 13.613 C 323.594 14.160,331.475 15.561,333.800 15.995 C 334.900 16.201,336.430 16.477,337.200 16.608 C 338.826 16.886,341.832 17.423,345.100 18.020 C 346.365 18.251,348.390 18.602,349.600 18.800 C 350.810 18.998,352.790 19.341,354.000 19.563 C 355.210 19.784,358.360 20.341,361.000 20.801 C 363.640 21.261,366.700 21.803,367.800 22.006 C 368.900 22.208,371.060 22.568,372.600 22.806 C 374.140 23.043,377.920 23.744,381.000 24.363 L 386.600 25.489 386.577 27.444 C 386.564 28.520,386.347 30.480,386.094 31.800 C 385.137 36.789,384.349 41.229,383.665 45.486 C 383.069 49.187,383.153 49.154,377.200 48.007 C 376.210 47.817,374.230 47.459,372.800 47.212 C 371.370 46.965,369.300 46.600,368.200 46.400 C 367.100 46.200,365.030 45.835,363.600 45.588 C 362.170 45.341,360.190 44.987,359.200 44.800 C 358.210 44.613,356.230 44.259,354.800 44.013 C 350.016 43.189,348.216 42.873,345.800 42.431 C 341.286 41.606,319.394 37.770,313.876 36.837 C 311.394 36.418,311.162 36.149,311.597 34.200 C 311.794 33.320,312.153 31.160,312.395 29.400 C 312.637 27.640,312.992 25.300,313.183 24.200 C 313.375 23.100,313.735 21.030,313.983 19.600 C 314.232 18.170,314.542 16.280,314.672 15.400 C 314.802 14.520,315.079 13.583,315.289 13.317 C 315.669 12.835,315.951 12.852,320.400 13.613 M203.885 111.500 C 225.536 140.507,229.478 163.319,214.998 175.820 C 211.863 178.526,207.782 181.200,206.788 181.200 C 206.547 181.200,206.400 176.974,206.400 170.024 C 206.400 163.004,206.251 158.755,206.000 158.600 C 205.780 158.464,205.600 157.986,205.600 157.538 C 205.600 154.408,200.591 152.168,197.282 153.819 C 194.279 155.317,193.713 158.645,193.630 175.300 C 193.611 179.000,193.449 181.200,193.195 181.200 C 192.703 181.200,191.233 180.386,190.487 179.700 C 190.188 179.425,189.792 179.200,189.608 179.200 C 188.291 179.200,182.451 173.457,179.759 169.516 C 171.561 157.512,177.687 135.452,195.729 112.012 C 196.835 110.575,198.113 108.915,198.570 108.322 C 199.902 106.592,200.478 106.936,203.885 111.500 M320.094 148.784 C 321.032 148.995,322.790 149.341,324.000 149.554 C 329.037 150.439,335.942 151.683,337.948 152.066 L 340.095 152.476 339.871 153.938 C 339.748 154.742,339.447 156.480,339.204 157.800 C 338.960 159.120,338.575 161.280,338.348 162.600 C 337.507 167.495,337.234 169.052,336.839 171.200 C 336.488 173.112,336.009 175.842,334.418 185.000 C 333.582 189.810,333.892 189.658,327.400 188.443 C 326.300 188.237,324.320 187.882,323.000 187.654 C 321.680 187.426,319.520 187.043,318.200 186.803 C 316.880 186.563,314.738 186.186,313.439 185.965 C 309.158 185.236,309.304 186.253,311.630 173.400 C 311.829 172.300,312.176 170.320,312.400 169.000 C 312.624 167.680,312.971 165.700,313.170 164.600 C 313.369 163.500,313.718 161.520,313.946 160.200 C 314.174 158.880,314.557 156.720,314.798 155.400 C 315.039 154.080,315.330 152.370,315.444 151.600 C 315.906 148.484,315.953 148.400,317.202 148.400 C 317.855 148.400,319.156 148.573,320.094 148.784 M136.400 198.978 C 142.303 200.306,143.090 200.605,147.323 203.121 C 155.278 207.848,160.087 216.059,161.018 226.500 C 161.305 229.720,161.158 230.021,159.695 229.220 C 157.597 228.071,149.642 224.400,149.250 224.400 C 148.996 224.400,148.477 224.222,148.095 224.004 C 143.058 221.128,132.116 216.400,130.501 216.400 C 125.960 216.400,123.205 221.474,125.700 225.241 C 126.620 226.630,126.915 226.796,139.200 232.846 C 141.950 234.200,146.270 236.330,148.800 237.579 C 151.330 238.827,154.004 240.131,154.742 240.476 L 156.085 241.103 154.332 242.309 C 137.573 253.839,121.274 250.171,107.308 231.725 C 104.841 228.467,101.600 223.775,101.600 223.463 C 101.600 223.363,100.895 222.122,100.034 220.704 C 98.517 218.207,93.419 207.914,92.417 205.324 C 91.855 203.874,92.105 203.200,93.205 203.200 C 93.621 203.200,94.376 203.039,94.881 202.842 C 96.671 202.144,102.992 200.603,106.726 199.955 C 112.748 198.909,114.050 198.720,117.400 198.403 C 122.329 197.936,133.235 198.266,136.400 198.978 M285.400 210.610 C 290.739 211.281,293.419 211.730,295.800 212.355 C 306.308 215.112,307.600 215.522,307.600 216.097 C 307.600 217.245,300.620 231.483,298.430 234.800 C 297.632 236.010,296.730 237.492,296.425 238.093 C 296.121 238.695,295.581 239.505,295.225 239.893 C 294.869 240.282,294.142 241.230,293.608 242.000 C 293.075 242.770,292.539 243.490,292.417 243.600 C 292.295 243.710,291.679 244.493,291.047 245.339 C 284.366 254.298,273.308 260.800,264.753 260.800 C 258.779 260.800,250.862 258.186,245.900 254.575 C 243.500 252.828,243.494 252.851,246.710 251.317 C 248.190 250.611,252.010 248.789,255.200 247.268 C 275.831 237.430,275.000 237.988,275.000 233.982 C 275.000 231.218,274.177 229.870,271.777 228.704 C 269.429 227.563,268.425 227.837,259.945 231.937 C 236.211 243.409,238.399 242.495,238.401 240.927 C 238.427 218.645,256.509 206.980,285.400 210.610 M230.000 264.976 C 230.000 267.596,230.171 269.658,230.400 269.800 C 230.620 269.936,230.800 271.027,230.800 272.224 C 230.800 273.421,230.980 274.400,231.200 274.400 C 231.420 274.400,231.600 275.019,231.600 275.776 C 231.600 276.533,231.780 277.264,232.000 277.400 C 232.220 277.536,232.400 278.177,232.400 278.824 C 232.400 279.471,232.580 280.000,232.800 280.000 C 233.020 280.000,233.200 280.540,233.200 281.200 C 233.200 281.860,233.380 282.400,233.600 282.400 C 233.820 282.400,234.000 282.839,234.000 283.376 C 234.000 283.913,234.180 284.464,234.400 284.600 C 234.620 284.736,234.800 285.197,234.800 285.624 C 234.800 286.051,234.980 286.400,235.200 286.400 C 235.420 286.400,235.600 286.760,235.600 287.200 C 235.600 287.640,235.780 288.000,236.000 288.000 C 236.220 288.000,236.400 288.360,236.400 288.800 C 236.400 289.240,236.580 289.600,236.800 289.600 C 237.020 289.600,237.200 289.788,237.200 290.017 C 237.200 290.246,237.560 290.820,238.000 291.292 C 238.440 291.764,238.800 292.387,238.800 292.675 C 238.800 292.964,238.980 293.200,239.200 293.200 C 239.420 293.200,239.600 293.494,239.600 293.853 C 239.600 294.212,239.915 294.797,240.300 295.153 C 240.685 295.509,241.351 296.430,241.780 297.200 C 242.209 297.970,242.896 298.960,243.308 299.400 C 244.042 300.186,244.038 300.202,243.028 300.327 C 242.463 300.396,242.000 300.621,242.000 300.827 C 242.000 301.032,241.460 301.200,240.800 301.200 C 240.140 301.200,239.600 301.380,239.600 301.600 C 239.600 301.820,239.060 302.000,238.400 302.000 C 237.740 302.000,237.200 302.180,237.200 302.400 C 237.200 302.620,236.840 302.800,236.400 302.800 C 235.960 302.800,235.600 302.980,235.600 303.200 C 235.600 303.420,235.240 303.600,234.800 303.600 C 234.360 303.600,234.000 303.780,234.000 304.000 C 234.000 304.220,233.640 304.400,233.200 304.400 C 232.760 304.400,232.400 304.580,232.400 304.800 C 232.400 305.020,232.080 305.200,231.688 305.200 C 231.297 305.200,230.717 305.560,230.400 306.000 C 230.083 306.440,229.585 306.800,229.294 306.800 C 229.002 306.800,228.349 307.205,227.843 307.700 C 227.337 308.195,226.228 309.140,225.379 309.800 C 224.530 310.460,223.355 311.498,222.768 312.107 C 221.769 313.142,220.675 313.260,220.000 312.405 C 219.215 311.409,211.541 308.400,209.786 308.400 C 209.244 308.400,208.800 308.220,208.800 308.000 C 208.800 307.780,208.350 307.600,207.800 307.600 L 206.800 307.600 206.800 294.418 L 206.800 281.236 207.782 279.718 C 208.322 278.883,209.312 277.620,209.982 276.911 C 210.652 276.203,211.200 275.525,211.200 275.406 C 211.200 275.018,217.760 268.622,219.200 267.605 C 219.970 267.062,221.000 266.222,221.489 265.738 C 221.978 265.254,222.923 264.536,223.589 264.143 C 224.255 263.749,224.800 263.286,224.800 263.114 C 224.800 262.941,225.070 262.800,225.400 262.800 C 225.730 262.800,226.000 262.620,226.000 262.400 C 226.000 262.180,226.239 262.000,226.530 262.000 C 226.822 262.000,227.407 261.651,227.830 261.224 C 229.643 259.396,230.000 260.013,230.000 264.976 M151.260 312.186 C 159.354 313.734,165.716 317.833,171.104 324.970 C 175.458 330.737,177.788 330.989,183.148 326.273 C 193.421 317.233,206.248 317.278,217.094 326.393 C 221.721 330.281,224.586 330.509,227.245 327.200 C 231.552 321.841,232.728 320.547,234.984 318.686 C 246.549 309.147,264.630 309.769,275.602 320.082 C 280.160 324.368,283.194 329.730,284.834 336.400 C 286.174 341.855,287.957 342.779,295.630 341.997 C 313.331 340.192,332.395 348.840,342.400 363.214 C 346.500 369.104,348.085 369.713,354.520 367.866 C 367.603 364.111,384.348 373.822,386.996 386.700 L 387.264 388.000 200.000 388.000 L 12.736 388.000 13.013 386.700 C 15.874 373.243,33.119 363.570,46.484 367.925 C 51.964 369.711,53.428 369.112,57.374 363.471 C 61.778 357.172,74.002 346.800,77.020 346.800 C 77.106 346.800,78.127 346.368,79.288 345.841 C 86.579 342.530,97.290 340.945,105.519 341.962 C 111.065 342.647,113.905 341.434,114.631 338.069 C 118.525 320.016,134.220 308.925,151.260 312.186 M144.800 334.166 C 134.118 336.514,125.213 349.902,129.606 357.010 C 132.517 361.721,140.389 359.462,140.402 353.913 C 140.427 343.764,154.995 342.776,156.820 352.800 C 158.457 361.786,168.792 362.172,168.799 353.246 C 168.807 341.462,156.418 331.612,144.800 334.166 M236.800 349.041 C 227.596 350.752,220.400 359.033,220.400 367.913 C 220.400 371.374,221.406 373.226,223.840 374.242 C 227.581 375.806,232.000 372.801,232.000 368.694 C 232.000 365.871,233.871 362.890,236.478 361.560 C 241.594 358.950,248.400 362.740,248.400 368.200 C 248.400 375.368,258.025 377.150,260.060 370.359 C 262.174 363.300,255.573 353.394,246.251 349.635 C 245.027 349.142,238.473 348.730,236.800 349.041 M88.886 357.576 C 84.775 361.686,90.029 368.114,94.630 364.604 C 96.604 363.099,97.076 361.223,96.027 359.056 C 94.609 356.126,91.069 355.393,88.886 357.576 M320.076 369.341 C 317.828 370.588,316.953 373.781,318.254 375.984 C 319.881 378.737,323.450 379.135,325.763 376.821 C 329.439 373.143,324.628 366.815,320.076 369.341 " stroke="none" fill="#040404" fill-rule="evenodd"></path></g></svg>